<?xml version="1.0" encoding="UTF-8" standalone="no"?>
<!DOCTYPE svg PUBLIC "-//W3C//DTD SVG 1.1//EN"
 "http://www.w3.org/Graphics/SVG/1.1/DTD/svg11.dtd">
<!-- Generated by graphviz version 12.2.1 (20241206.2353)
 -->
<!-- Title: Stephen&lt; PresentationType &gt; Pages: 1 -->
<svg width="154pt" height="138pt"
 viewBox="0.00 0.00 153.75 137.75" xmlns="http://www.w3.org/2000/svg" xmlns:xlink="http://www.w3.org/1999/xlink">
<g id="graph0" class="graph" transform="scale(1 1) rotate(0) translate(4 133.75)">
<title>Stephen&lt; PresentationType &gt;</title>
<!-- Node1 -->
<g id="Node000001" class="node">
<title>Node1</title>
<g id="a_Node000001"><a xlink:title="For constructing the word graph of left factors of a word in an f.p. semigroup.">
<polygon fill="#999999" stroke="#666666" points="145.75,-19.25 0,-19.25 0,0 145.75,0 145.75,-19.25"/>
<text text-anchor="middle" x="72.88" y="-5.75" font-family="Helvetica,sans-Serif" font-size="10.00">Stephen&lt; PresentationType &gt;</text>
</a>
</g>
</g>
<!-- Node2 -->
<g id="Node000002" class="node">
<title>Node2</title>
<g id="a_Node000002"><a xlink:href="classlibsemigroups_1_1_runner.html" target="_top" xlink:title="Abstract class for derived classes that run an algorithm.">
<polygon fill="white" stroke="#666666" points="96.62,-74.5 49.12,-74.5 49.12,-55.25 96.62,-55.25 96.62,-74.5"/>
<text text-anchor="middle" x="72.88" y="-61" font-family="Helvetica,sans-Serif" font-size="10.00">Runner</text>
</a>
</g>
</g>
<!-- Node2&#45;&gt;Node1 -->
<g id="edge1_Node000001_Node000002" class="edge">
<title>Node2&#45;&gt;Node1</title>
<g id="a_edge1_Node000001_Node000002"><a xlink:title=" ">
<path fill="none" stroke="#63b8ff" d="M72.88,-43.63C72.88,-35.34 72.88,-26.17 72.88,-19.61"/>
<polygon fill="#63b8ff" stroke="#63b8ff" points="69.38,-43.57 72.88,-53.57 76.38,-43.57 69.38,-43.57"/>
</a>
</g>
</g>
<!-- Node3 -->
<g id="Node000003" class="node">
<title>Node3</title>
<g id="a_Node000003"><a xlink:href="classlibsemigroups_1_1_reporter.html" target="_top" xlink:title="Collection of values related to reporting.">
<polygon fill="white" stroke="#666666" points="99.62,-129.75 46.12,-129.75 46.12,-110.5 99.62,-110.5 99.62,-129.75"/>
<text text-anchor="middle" x="72.88" y="-116.25" font-family="Helvetica,sans-Serif" font-size="10.00">Reporter</text>
</a>
</g>
</g>
<!-- Node3&#45;&gt;Node2 -->
<g id="edge2_Node000002_Node000003" class="edge">
<title>Node3&#45;&gt;Node2</title>
<g id="a_edge2_Node000002_Node000003"><a xlink:title=" ">
<path fill="none" stroke="#63b8ff" d="M72.88,-98.88C72.88,-90.59 72.88,-81.42 72.88,-74.86"/>
<polygon fill="#63b8ff" stroke="#63b8ff" points="69.38,-98.82 72.88,-108.82 76.38,-98.82 69.38,-98.82"/>
</a>
</g>
</g>
</g>
</svg>
