<?xml version="1.0" encoding="UTF-8" standalone="no"?>
<!DOCTYPE svg PUBLIC "-//W3C//DTD SVG 1.1//EN"
 "http://www.w3.org/Graphics/SVG/1.1/DTD/svg11.dtd">
<!-- Generated by graphviz version 2.43.0 (0)
 -->
<!-- Title: Stephen&lt; PresentationType &gt; Pages: 1 -->
<svg width="154pt" height="137pt"
 viewBox="0.00 0.00 154.00 137.00" xmlns="http://www.w3.org/2000/svg" xmlns:xlink="http://www.w3.org/1999/xlink">
<g id="graph0" class="graph" transform="scale(1 1) rotate(0) translate(4 133)">
<title>Stephen&lt; PresentationType &gt;</title>
<!-- Node1 -->
<g id="Node000001" class="node">
<title>Node1</title>
<g id="a_Node000001"><a xlink:title="For constructing the word graph of left factors of a word in an f.p. semigroup.">
<polygon fill="#999999" stroke="#666666" points="146,-19 0,-19 0,0 146,0 146,-19"/>
<text text-anchor="middle" x="73" y="-7" font-family="Helvetica,sans-Serif" font-size="10.00">Stephen&lt; PresentationType &gt;</text>
</a>
</g>
</g>
<!-- Node2 -->
<g id="Node000002" class="node">
<title>Node2</title>
<g id="a_Node000002"><a xlink:href="classlibsemigroups_1_1_runner.html" target="_top" xlink:title="Abstract class for derived classes that run an algorithm.">
<polygon fill="white" stroke="#666666" points="97,-74 49,-74 49,-55 97,-55 97,-74"/>
<text text-anchor="middle" x="73" y="-62" font-family="Helvetica,sans-Serif" font-size="10.00">Runner</text>
</a>
</g>
</g>
<!-- Node2&#45;&gt;Node1 -->
<g id="edge1_Node000001_Node000002" class="edge">
<title>Node2&#45;&gt;Node1</title>
<g id="a_edge1_Node000001_Node000002"><a xlink:title=" ">
<path fill="none" stroke="#63b8ff" d="M73,-44.66C73,-35.93 73,-25.99 73,-19.09"/>
<polygon fill="#63b8ff" stroke="#63b8ff" points="69.5,-44.75 73,-54.75 76.5,-44.75 69.5,-44.75"/>
</a>
</g>
</g>
<!-- Node3 -->
<g id="Node000003" class="node">
<title>Node3</title>
<g id="a_Node000003"><a xlink:href="classlibsemigroups_1_1_reporter.html" target="_top" xlink:title="Collection of values related to reporting.">
<polygon fill="white" stroke="#666666" points="100,-129 46,-129 46,-110 100,-110 100,-129"/>
<text text-anchor="middle" x="73" y="-117" font-family="Helvetica,sans-Serif" font-size="10.00">Reporter</text>
</a>
</g>
</g>
<!-- Node3&#45;&gt;Node2 -->
<g id="edge2_Node000002_Node000003" class="edge">
<title>Node3&#45;&gt;Node2</title>
<g id="a_edge2_Node000002_Node000003"><a xlink:title=" ">
<path fill="none" stroke="#63b8ff" d="M73,-99.66C73,-90.93 73,-80.99 73,-74.09"/>
<polygon fill="#63b8ff" stroke="#63b8ff" points="69.5,-99.75 73,-109.75 76.5,-99.75 69.5,-99.75"/>
</a>
</g>
</g>
</g>
</svg>
