<?xml version="1.0" encoding="UTF-8" standalone="no"?>
<!DOCTYPE svg PUBLIC "-//W3C//DTD SVG 1.1//EN"
 "http://www.w3.org/Graphics/SVG/1.1/DTD/svg11.dtd">
<!-- Generated by graphviz version 12.2.1 (0)
 -->
<!-- Title: StaticPTransf&lt; N, Scalar &gt; Pages: 1 -->
<svg width="143pt" height="160pt"
 viewBox="0.00 0.00 143.25 160.25" xmlns="http://www.w3.org/2000/svg" xmlns:xlink="http://www.w3.org/1999/xlink">
<g id="graph0" class="graph" transform="scale(1 1) rotate(0) translate(4 156.25)">
<title>StaticPTransf&lt; N, Scalar &gt;</title>
<!-- Node1 -->
<g id="Node000001" class="node">
<title>Node1</title>
<g id="a_Node000001"><a xlink:title="Partial transformations with static degree.">
<polygon fill="#999999" stroke="#666666" points="135.25,-19.25 0,-19.25 0,0 135.25,0 135.25,-19.25"/>
<text text-anchor="middle" x="67.62" y="-5.75" font-family="Helvetica,sans-Serif" font-size="10.00">StaticPTransf&lt; N, Scalar &gt;</text>
</a>
</g>
</g>
<!-- Node2 -->
<g id="Node000002" class="node">
<title>Node2</title>
<g id="a_Node000002"><a xlink:href="classlibsemigroups_1_1_p_transf_base.html" target="_top" xlink:title=" ">
<polygon fill="white" stroke="#666666" points="123.62,-97 11.63,-97 11.63,-55.25 123.62,-55.25 123.62,-97"/>
<text text-anchor="start" x="19.62" y="-83.5" font-family="Helvetica,sans-Serif" font-size="10.00">PTransfBase&lt; Scalar,</text>
<text text-anchor="start" x="19.62" y="-72.25" font-family="Helvetica,sans-Serif" font-size="10.00"> std::array&lt; Scalar,</text>
<text text-anchor="middle" x="67.62" y="-61" font-family="Helvetica,sans-Serif" font-size="10.00"> N &gt; &gt;</text>
</a>
</g>
</g>
<!-- Node2&#45;&gt;Node1 -->
<g id="edge1_Node000001_Node000002" class="edge">
<title>Node2&#45;&gt;Node1</title>
<g id="a_edge1_Node000001_Node000002"><a xlink:title=" ">
<path fill="none" stroke="#63b8ff" d="M67.62,-43.76C67.62,-34.95 67.62,-26.05 67.62,-19.7"/>
<polygon fill="#63b8ff" stroke="#63b8ff" points="64.13,-43.56 67.63,-53.56 71.13,-43.56 64.13,-43.56"/>
</a>
</g>
</g>
<!-- Node3 -->
<g id="Node000003" class="node">
<title>Node3</title>
<g id="a_Node000003"><a xlink:href="structlibsemigroups_1_1detail_1_1_p_transf_polymorphic_base.html" target="_top" xlink:title=" ">
<polygon fill="white" stroke="#666666" points="131.12,-152.25 4.12,-152.25 4.12,-133 131.12,-133 131.12,-152.25"/>
<text text-anchor="middle" x="67.62" y="-138.75" font-family="Helvetica,sans-Serif" font-size="10.00">PTransfPolymorphicBase</text>
</a>
</g>
</g>
<!-- Node3&#45;&gt;Node2 -->
<g id="edge2_Node000002_Node000003" class="edge">
<title>Node3&#45;&gt;Node2</title>
<g id="a_edge2_Node000002_Node000003"><a xlink:title=" ">
<path fill="none" stroke="#63b8ff" d="M67.62,-121.2C67.62,-113.61 67.62,-105.01 67.62,-97.43"/>
<polygon fill="#63b8ff" stroke="#63b8ff" points="64.13,-121.14 67.63,-131.14 71.13,-121.14 64.13,-121.14"/>
</a>
</g>
</g>
</g>
</svg>
