<?xml version="1.0" encoding="UTF-8" standalone="no"?>
<!DOCTYPE svg PUBLIC "-//W3C//DTD SVG 1.1//EN"
 "http://www.w3.org/Graphics/SVG/1.1/DTD/svg11.dtd">
<!-- Generated by graphviz version 12.2.1 (20241206.2353)
 -->
<!-- Title: DynamicPTransf&lt; Scalar &gt; Pages: 1 -->
<svg width="143pt" height="149pt"
 viewBox="0.00 0.00 143.25 149.00" xmlns="http://www.w3.org/2000/svg" xmlns:xlink="http://www.w3.org/1999/xlink">
<g id="graph0" class="graph" transform="scale(1 1) rotate(0) translate(4 145)">
<title>DynamicPTransf&lt; Scalar &gt;</title>
<!-- Node1 -->
<g id="Node000001" class="node">
<title>Node1</title>
<g id="a_Node000001"><a xlink:title="Partial transformations with dynamic degree.">
<polygon fill="#999999" stroke="#666666" points="135.25,-19.25 0,-19.25 0,0 135.25,0 135.25,-19.25"/>
<text text-anchor="middle" x="67.62" y="-5.75" font-family="Helvetica,sans-Serif" font-size="10.00">DynamicPTransf&lt; Scalar &gt;</text>
</a>
</g>
</g>
<!-- Node2 -->
<g id="Node000002" class="node">
<title>Node2</title>
<g id="a_Node000002"><a xlink:href="classlibsemigroups_1_1_p_transf_base.html" target="_top" xlink:title=" ">
<polygon fill="white" stroke="#666666" points="127.75,-85.75 7.5,-85.75 7.5,-55.25 127.75,-55.25 127.75,-85.75"/>
<text text-anchor="start" x="15.5" y="-72.25" font-family="Helvetica,sans-Serif" font-size="10.00">PTransfBase&lt; Scalar,</text>
<text text-anchor="middle" x="67.62" y="-61" font-family="Helvetica,sans-Serif" font-size="10.00"> std::vector&lt; Scalar &gt; &gt;</text>
</a>
</g>
</g>
<!-- Node2&#45;&gt;Node1 -->
<g id="edge1_Node000001_Node000002" class="edge">
<title>Node2&#45;&gt;Node1</title>
<g id="a_edge1_Node000001_Node000002"><a xlink:title=" ">
<path fill="none" stroke="#63b8ff" d="M67.62,-43.48C67.62,-34.98 67.62,-26.09 67.62,-19.7"/>
<polygon fill="#63b8ff" stroke="#63b8ff" points="64.13,-43.43 67.63,-53.43 71.13,-43.43 64.13,-43.43"/>
</a>
</g>
</g>
<!-- Node3 -->
<g id="Node000003" class="node">
<title>Node3</title>
<g id="a_Node000003"><a xlink:href="structlibsemigroups_1_1detail_1_1_p_transf_polymorphic_base.html" target="_top" xlink:title=" ">
<polygon fill="white" stroke="#666666" points="131.12,-141 4.12,-141 4.12,-121.75 131.12,-121.75 131.12,-141"/>
<text text-anchor="middle" x="67.62" y="-127.5" font-family="Helvetica,sans-Serif" font-size="10.00">PTransfPolymorphicBase</text>
</a>
</g>
</g>
<!-- Node3&#45;&gt;Node2 -->
<g id="edge2_Node000002_Node000003" class="edge">
<title>Node3&#45;&gt;Node2</title>
<g id="a_edge2_Node000002_Node000003"><a xlink:title=" ">
<path fill="none" stroke="#63b8ff" d="M67.62,-110.17C67.62,-102.24 67.62,-93.31 67.62,-86.03"/>
<polygon fill="#63b8ff" stroke="#63b8ff" points="64.13,-109.92 67.63,-119.92 71.13,-109.92 64.13,-109.92"/>
</a>
</g>
</g>
</g>
</svg>
