<?xml version="1.0" encoding="UTF-8" standalone="no"?>
<!DOCTYPE svg PUBLIC "-//W3C//DTD SVG 1.1//EN"
 "http://www.w3.org/Graphics/SVG/1.1/DTD/svg11.dtd">
<!-- Generated by graphviz version 2.43.0 (0)
 -->
<!-- Title: StaticPTransf&lt; N, Scalar &gt; Pages: 1 -->
<svg width="144pt" height="159pt"
 viewBox="0.00 0.00 144.00 159.00" xmlns="http://www.w3.org/2000/svg" xmlns:xlink="http://www.w3.org/1999/xlink">
<g id="graph0" class="graph" transform="scale(1 1) rotate(0) translate(4 155)">
<title>StaticPTransf&lt; N, Scalar &gt;</title>
<!-- Node1 -->
<g id="Node000001" class="node">
<title>Node1</title>
<g id="a_Node000001"><a xlink:title="Partial transformations with static degree.">
<polygon fill="#999999" stroke="#666666" points="136,-19 0,-19 0,0 136,0 136,-19"/>
<text text-anchor="middle" x="68" y="-7" font-family="Helvetica,sans-Serif" font-size="10.00">StaticPTransf&lt; N, Scalar &gt;</text>
</a>
</g>
</g>
<!-- Node2 -->
<g id="Node000002" class="node">
<title>Node2</title>
<g id="a_Node000002"><a xlink:href="classlibsemigroups_1_1_p_transf_base.html" target="_top" xlink:title=" ">
<polygon fill="white" stroke="#666666" points="124.5,-96 11.5,-96 11.5,-55 124.5,-55 124.5,-96"/>
<text text-anchor="start" x="19.5" y="-84" font-family="Helvetica,sans-Serif" font-size="10.00">PTransfBase&lt; Scalar,</text>
<text text-anchor="start" x="19.5" y="-73" font-family="Helvetica,sans-Serif" font-size="10.00"> std::array&lt; Scalar,</text>
<text text-anchor="middle" x="68" y="-62" font-family="Helvetica,sans-Serif" font-size="10.00"> N &gt; &gt;</text>
</a>
</g>
</g>
<!-- Node2&#45;&gt;Node1 -->
<g id="edge1_Node000001_Node000002" class="edge">
<title>Node2&#45;&gt;Node1</title>
<g id="a_edge1_Node000001_Node000002"><a xlink:title=" ">
<path fill="none" stroke="#63b8ff" d="M68,-44.74C68,-35.45 68,-25.9 68,-19.26"/>
<polygon fill="#63b8ff" stroke="#63b8ff" points="64.5,-44.95 68,-54.95 71.5,-44.95 64.5,-44.95"/>
</a>
</g>
</g>
<!-- Node3 -->
<g id="Node000003" class="node">
<title>Node3</title>
<g id="a_Node000003"><a xlink:href="structlibsemigroups_1_1detail_1_1_p_transf_polymorphic_base.html" target="_top" xlink:title=" ">
<polygon fill="white" stroke="#666666" points="132,-151 4,-151 4,-132 132,-132 132,-151"/>
<text text-anchor="middle" x="68" y="-139" font-family="Helvetica,sans-Serif" font-size="10.00">PTransfPolymorphicBase</text>
</a>
</g>
</g>
<!-- Node3&#45;&gt;Node2 -->
<g id="edge2_Node000002_Node000003" class="edge">
<title>Node3&#45;&gt;Node2</title>
<g id="a_edge2_Node000002_Node000003"><a xlink:title=" ">
<path fill="none" stroke="#63b8ff" d="M68,-121.63C68,-113.56 68,-104.15 68,-96.01"/>
<polygon fill="#63b8ff" stroke="#63b8ff" points="64.5,-121.87 68,-131.87 71.5,-121.87 64.5,-121.87"/>
</a>
</g>
</g>
</g>
</svg>
