<?xml version="1.0" encoding="UTF-8" standalone="no"?>
<!DOCTYPE svg PUBLIC "-//W3C//DTD SVG 1.1//EN"
 "http://www.w3.org/Graphics/SVG/1.1/DTD/svg11.dtd">
<!-- Generated by graphviz version 12.1.2 (20240928.0832)
 -->
<!-- Title: InversePresentation&lt; Word &gt; Pages: 1 -->
<svg width="119pt" height="149pt"
 viewBox="0.00 0.00 119.25 149.00" xmlns="http://www.w3.org/2000/svg" xmlns:xlink="http://www.w3.org/1999/xlink">
<g id="graph0" class="graph" transform="scale(1 1) rotate(0) translate(4 145)">
<title>InversePresentation&lt; Word &gt;</title>
<!-- Node1 -->
<g id="Node000001" class="node">
<title>Node1</title>
<g id="a_Node000001"><a xlink:title="For an implementation of inverse presentations for semigroups or monoids.">
<polygon fill="#999999" stroke="#666666" points="107.12,-30.5 4.12,-30.5 4.12,0 107.12,0 107.12,-30.5"/>
<text text-anchor="start" x="12.12" y="-17" font-family="Helvetica,sans-Serif" font-size="10.00">InversePresentation</text>
<text text-anchor="middle" x="55.62" y="-5.75" font-family="Helvetica,sans-Serif" font-size="10.00">&lt; Word &gt;</text>
</a>
</g>
</g>
<!-- Node2 -->
<g id="Node000002" class="node">
<title>Node2</title>
<g id="a_Node000002"><a xlink:href="classlibsemigroups_1_1_presentation.html" target="_top" xlink:title="For an implementation of presentations for semigroups or monoids.">
<polygon fill="white" stroke="#666666" points="111.25,-85.75 0,-85.75 0,-66.5 111.25,-66.5 111.25,-85.75"/>
<text text-anchor="middle" x="55.62" y="-72.25" font-family="Helvetica,sans-Serif" font-size="10.00">Presentation&lt; Word &gt;</text>
</a>
</g>
</g>
<!-- Node2&#45;&gt;Node1 -->
<g id="edge1_Node000001_Node000002" class="edge">
<title>Node2&#45;&gt;Node1</title>
<g id="a_edge1_Node000001_Node000002"><a xlink:title=" ">
<path fill="none" stroke="#63b8ff" d="M55.62,-54.92C55.62,-46.99 55.62,-38.06 55.62,-30.78"/>
<polygon fill="#63b8ff" stroke="#63b8ff" points="52.13,-54.67 55.63,-64.67 59.13,-54.67 52.13,-54.67"/>
</a>
</g>
</g>
<!-- Node3 -->
<g id="Node000003" class="node">
<title>Node3</title>
<g id="a_Node000003"><a xlink:href="structlibsemigroups_1_1_presentation_base.html" target="_top" xlink:title="No doc.">
<polygon fill="white" stroke="#666666" points="102.25,-141 9,-141 9,-121.75 102.25,-121.75 102.25,-141"/>
<text text-anchor="middle" x="55.62" y="-127.5" font-family="Helvetica,sans-Serif" font-size="10.00">PresentationBase</text>
</a>
</g>
</g>
<!-- Node3&#45;&gt;Node2 -->
<g id="edge2_Node000002_Node000003" class="edge">
<title>Node3&#45;&gt;Node2</title>
<g id="a_edge2_Node000002_Node000003"><a xlink:title=" ">
<path fill="none" stroke="#63b8ff" d="M55.62,-110.13C55.62,-101.84 55.62,-92.67 55.62,-86.11"/>
<polygon fill="#63b8ff" stroke="#63b8ff" points="52.13,-110.07 55.63,-120.07 59.13,-110.07 52.13,-110.07"/>
</a>
</g>
</g>
</g>
</svg>
