<?xml version="1.0" encoding="UTF-8" standalone="no"?>
<!DOCTYPE svg PUBLIC "-//W3C//DTD SVG 1.1//EN"
 "http://www.w3.org/Graphics/SVG/1.1/DTD/svg11.dtd">
<!-- Generated by graphviz version 12.1.2 (20240928.0832)
 -->
<!-- Title: Transf&lt; N, Scalar &gt; Pages: 1 -->
<svg width="190pt" height="83pt"
 viewBox="0.00 0.00 189.62 82.50" xmlns="http://www.w3.org/2000/svg" xmlns:xlink="http://www.w3.org/1999/xlink">
<g id="graph0" class="graph" transform="scale(1 1) rotate(0) translate(4 78.5)">
<title>Transf&lt; N, Scalar &gt;</title>
<!-- Node1 -->
<g id="Node000001" class="node">
<title>Node1</title>
<g id="a_Node000001"><a xlink:title="Transformations with static or dynamic degree.">
<polygon fill="#999999" stroke="#666666" points="133.88,-74.5 30.88,-74.5 30.88,-55.25 133.88,-55.25 133.88,-74.5"/>
<text text-anchor="middle" x="82.38" y="-61" font-family="Helvetica,sans-Serif" font-size="10.00">Transf&lt; N, Scalar &gt;</text>
</a>
</g>
</g>
<!-- Node2 -->
<g id="Node000002" class="node">
<title>Node2</title>
<g id="a_Node000002"><a xlink:href="classlibsemigroups_1_1_perm.html" target="_top" xlink:title=" ">
<polygon fill="white" stroke="#666666" points="64.75,-19.25 0,-19.25 0,0 64.75,0 64.75,-19.25"/>
<text text-anchor="middle" x="32.38" y="-5.75" font-family="Helvetica,sans-Serif" font-size="10.00">Perm&lt; N &gt;</text>
</a>
</g>
</g>
<!-- Node1&#45;&gt;Node2 -->
<g id="edge1_Node000001_Node000002" class="edge">
<title>Node1&#45;&gt;Node2</title>
<g id="a_edge1_Node000001_Node000002"><a xlink:title=" ">
<path fill="none" stroke="#63b8ff" d="M66.33,-46.79C57.85,-37.75 47.77,-27.02 40.81,-19.61"/>
<polygon fill="#63b8ff" stroke="#63b8ff" points="63.69,-49.08 73.08,-53.98 68.79,-44.29 63.69,-49.08"/>
</a>
</g>
</g>
<!-- Node3 -->
<g id="Node000003" class="node">
<title>Node3</title>
<g id="a_Node000003"><a xlink:href="classlibsemigroups_1_1_perm.html" target="_top" xlink:title="Permutations with static or dynamic degree.">
<polygon fill="white" stroke="#666666" points="181.62,-19.25 83.12,-19.25 83.12,0 181.62,0 181.62,-19.25"/>
<text text-anchor="middle" x="132.38" y="-5.75" font-family="Helvetica,sans-Serif" font-size="10.00">Perm&lt; N, Scalar &gt;</text>
</a>
</g>
</g>
<!-- Node1&#45;&gt;Node3 -->
<g id="edge2_Node000001_Node000003" class="edge">
<title>Node1&#45;&gt;Node3</title>
<g id="a_edge2_Node000001_Node000003"><a xlink:title=" ">
<path fill="none" stroke="#63b8ff" d="M98.42,-46.79C106.9,-37.75 116.98,-27.02 123.94,-19.61"/>
<polygon fill="#63b8ff" stroke="#63b8ff" points="95.96,-44.29 91.67,-53.98 101.06,-49.08 95.96,-44.29"/>
</a>
</g>
</g>
</g>
</svg>
