<?xml version="1.0" encoding="UTF-8" standalone="no"?>
<!DOCTYPE svg PUBLIC "-//W3C//DTD SVG 1.1//EN"
 "http://www.w3.org/Graphics/SVG/1.1/DTD/svg11.dtd">
<!-- Generated by graphviz version 2.43.0 (0)
 -->
<!-- Title: Konieczny&lt; Element, Traits &gt; Pages: 1 -->
<svg width="118pt" height="148pt"
 viewBox="0.00 0.00 118.00 148.00" xmlns="http://www.w3.org/2000/svg" xmlns:xlink="http://www.w3.org/1999/xlink">
<g id="graph0" class="graph" transform="scale(1 1) rotate(0) translate(4 144)">
<title>Konieczny&lt; Element, Traits &gt;</title>
<!-- Node1 -->
<g id="Node000001" class="node">
<title>Node1</title>
<g id="a_Node000001"><a xlink:title="Class implementing Konieczny&#39;s algorithm.">
<polygon fill="#999999" stroke="#666666" points="110,-30 0,-30 0,0 110,0 110,-30"/>
<text text-anchor="start" x="8" y="-18" font-family="Helvetica,sans-Serif" font-size="10.00">Konieczny&lt; Element,</text>
<text text-anchor="middle" x="55" y="-7" font-family="Helvetica,sans-Serif" font-size="10.00"> Traits &gt;</text>
</a>
</g>
</g>
<!-- Node2 -->
<g id="Node000002" class="node">
<title>Node2</title>
<g id="a_Node000002"><a xlink:href="classlibsemigroups_1_1_runner.html" target="_top" xlink:title="Abstract class for derived classes that run an algorithm.">
<polygon fill="white" stroke="#666666" points="79,-85 31,-85 31,-66 79,-66 79,-85"/>
<text text-anchor="middle" x="55" y="-73" font-family="Helvetica,sans-Serif" font-size="10.00">Runner</text>
</a>
</g>
</g>
<!-- Node2&#45;&gt;Node1 -->
<g id="edge1_Node000001_Node000002" class="edge">
<title>Node2&#45;&gt;Node1</title>
<g id="a_edge1_Node000001_Node000002"><a xlink:title=" ">
<path fill="none" stroke="#63b8ff" d="M55,-55.65C55,-47.36 55,-37.78 55,-30.11"/>
<polygon fill="#63b8ff" stroke="#63b8ff" points="51.5,-55.87 55,-65.87 58.5,-55.87 51.5,-55.87"/>
</a>
</g>
</g>
<!-- Node3 -->
<g id="Node000003" class="node">
<title>Node3</title>
<g id="a_Node000003"><a xlink:href="classlibsemigroups_1_1_reporter.html" target="_top" xlink:title="Collection of values related to reporting.">
<polygon fill="white" stroke="#666666" points="82,-140 28,-140 28,-121 82,-121 82,-140"/>
<text text-anchor="middle" x="55" y="-128" font-family="Helvetica,sans-Serif" font-size="10.00">Reporter</text>
</a>
</g>
</g>
<!-- Node3&#45;&gt;Node2 -->
<g id="edge2_Node000002_Node000003" class="edge">
<title>Node3&#45;&gt;Node2</title>
<g id="a_edge2_Node000002_Node000003"><a xlink:title=" ">
<path fill="none" stroke="#63b8ff" d="M55,-110.66C55,-101.93 55,-91.99 55,-85.09"/>
<polygon fill="#63b8ff" stroke="#63b8ff" points="51.5,-110.75 55,-120.75 58.5,-110.75 51.5,-110.75"/>
</a>
</g>
</g>
</g>
</svg>
