<?xml version="1.0" encoding="UTF-8" standalone="no"?>
<!DOCTYPE svg PUBLIC "-//W3C//DTD SVG 1.1//EN"
 "http://www.w3.org/Graphics/SVG/1.1/DTD/svg11.dtd">
<!-- Generated by graphviz version 12.2.1 (20241206.2353)
 -->
<!-- Title: Konieczny&lt; Element, Traits &gt; Pages: 1 -->
<svg width="118pt" height="149pt"
 viewBox="0.00 0.00 117.75 149.00" xmlns="http://www.w3.org/2000/svg" xmlns:xlink="http://www.w3.org/1999/xlink">
<g id="graph0" class="graph" transform="scale(1 1) rotate(0) translate(4 145)">
<title>Konieczny&lt; Element, Traits &gt;</title>
<!-- Node1 -->
<g id="Node000001" class="node">
<title>Node1</title>
<g id="a_Node000001"><a xlink:title="Class implementing Konieczny&#39;s algorithm.">
<polygon fill="#999999" stroke="#666666" points="109.75,-30.5 0,-30.5 0,0 109.75,0 109.75,-30.5"/>
<text text-anchor="start" x="8" y="-17" font-family="Helvetica,sans-Serif" font-size="10.00">Konieczny&lt; Element,</text>
<text text-anchor="middle" x="54.88" y="-5.75" font-family="Helvetica,sans-Serif" font-size="10.00"> Traits &gt;</text>
</a>
</g>
</g>
<!-- Node2 -->
<g id="Node000002" class="node">
<title>Node2</title>
<g id="a_Node000002"><a xlink:href="classlibsemigroups_1_1_runner.html" target="_top" xlink:title="Abstract class for derived classes that run an algorithm.">
<polygon fill="white" stroke="#666666" points="78.62,-85.75 31.12,-85.75 31.12,-66.5 78.62,-66.5 78.62,-85.75"/>
<text text-anchor="middle" x="54.88" y="-72.25" font-family="Helvetica,sans-Serif" font-size="10.00">Runner</text>
</a>
</g>
</g>
<!-- Node2&#45;&gt;Node1 -->
<g id="edge1_Node000001_Node000002" class="edge">
<title>Node2&#45;&gt;Node1</title>
<g id="a_edge1_Node000001_Node000002"><a xlink:title=" ">
<path fill="none" stroke="#63b8ff" d="M54.88,-54.92C54.88,-46.99 54.88,-38.06 54.88,-30.78"/>
<polygon fill="#63b8ff" stroke="#63b8ff" points="51.38,-54.67 54.88,-64.67 58.38,-54.67 51.38,-54.67"/>
</a>
</g>
</g>
<!-- Node3 -->
<g id="Node000003" class="node">
<title>Node3</title>
<g id="a_Node000003"><a xlink:href="classlibsemigroups_1_1_reporter.html" target="_top" xlink:title="Collection of values related to reporting.">
<polygon fill="white" stroke="#666666" points="81.62,-141 28.12,-141 28.12,-121.75 81.62,-121.75 81.62,-141"/>
<text text-anchor="middle" x="54.88" y="-127.5" font-family="Helvetica,sans-Serif" font-size="10.00">Reporter</text>
</a>
</g>
</g>
<!-- Node3&#45;&gt;Node2 -->
<g id="edge2_Node000002_Node000003" class="edge">
<title>Node3&#45;&gt;Node2</title>
<g id="a_edge2_Node000002_Node000003"><a xlink:title=" ">
<path fill="none" stroke="#63b8ff" d="M54.88,-110.13C54.88,-101.84 54.88,-92.67 54.88,-86.11"/>
<polygon fill="#63b8ff" stroke="#63b8ff" points="51.38,-110.07 54.88,-120.07 58.38,-110.07 51.38,-110.07"/>
</a>
</g>
</g>
</g>
</svg>
