<?xml version="1.0" encoding="UTF-8" standalone="no"?>
<!DOCTYPE svg PUBLIC "-//W3C//DTD SVG 1.1//EN"
 "http://www.w3.org/Graphics/SVG/1.1/DTD/svg11.dtd">
<!-- Generated by graphviz version 12.1.2 (20240928.0832)
 -->
<!-- Title: Reporter Pages: 1 -->
<svg width="476pt" height="297pt"
 viewBox="0.00 0.00 476.25 296.88" xmlns="http://www.w3.org/2000/svg" xmlns:xlink="http://www.w3.org/1999/xlink">
<g id="graph0" class="graph" transform="scale(1 1) rotate(0) translate(4 292.88)">
<title>Reporter</title>
<!-- Node1 -->
<g id="Node000001" class="node">
<title>Node1</title>
<g id="a_Node000001"><a xlink:title="Collection of values related to reporting.">
<polygon fill="#999999" stroke="#666666" points="53.5,-148.25 0,-148.25 0,-129 53.5,-129 53.5,-148.25"/>
<text text-anchor="middle" x="26.75" y="-134.75" font-family="Helvetica,sans-Serif" font-size="10.00">Reporter</text>
</a>
</g>
</g>
<!-- Node2 -->
<g id="Node000002" class="node">
<title>Node2</title>
<g id="a_Node000002"><a xlink:href="classlibsemigroups_1_1_runner.html" target="_top" xlink:title="Abstract class for derived classes that run an algorithm.">
<polygon fill="white" stroke="#666666" points="137,-148.25 89.5,-148.25 89.5,-129 137,-129 137,-148.25"/>
<text text-anchor="middle" x="113.25" y="-134.75" font-family="Helvetica,sans-Serif" font-size="10.00">Runner</text>
</a>
</g>
</g>
<!-- Node1&#45;&gt;Node2 -->
<g id="edge1_Node000001_Node000002" class="edge">
<title>Node1&#45;&gt;Node2</title>
<g id="a_edge1_Node000001_Node000002"><a xlink:title=" ">
<path fill="none" stroke="#63b8ff" d="M64.92,-138.62C73.17,-138.62 81.68,-138.62 89.18,-138.62"/>
<polygon fill="#63b8ff" stroke="#63b8ff" points="65.08,-135.13 55.08,-138.63 65.08,-142.13 65.08,-135.13"/>
</a>
</g>
</g>
<!-- Node3 -->
<g id="Node000003" class="node">
<title>Node3</title>
<g id="a_Node000003"><a xlink:href="classlibsemigroups_1_1_action.html" target="_top" xlink:title=" ">
<polygon fill="white" stroke="#666666" points="310.5,-288.88 181.25,-288.88 181.25,-258.38 310.5,-258.38 310.5,-288.88"/>
<text text-anchor="start" x="189.25" y="-275.38" font-family="Helvetica,sans-Serif" font-size="10.00">Action&lt; Element, Point,</text>
<text text-anchor="middle" x="245.88" y="-264.12" font-family="Helvetica,sans-Serif" font-size="10.00"> Func, Traits, side::right &gt;</text>
</a>
</g>
</g>
<!-- Node2&#45;&gt;Node3 -->
<g id="edge2_Node000002_Node000003" class="edge">
<title>Node2&#45;&gt;Node3</title>
<g id="a_edge2_Node000002_Node000003"><a xlink:title=" ">
<path fill="none" stroke="#63b8ff" d="M120.3,-159.7C128.42,-184.34 145.13,-224.79 173,-248.62 177.22,-252.23 181.99,-255.33 187.01,-257.98"/>
<polygon fill="#63b8ff" stroke="#63b8ff" points="123.65,-158.68 117.36,-150.16 116.97,-160.75 123.65,-158.68"/>
</a>
</g>
</g>
<!-- Node4 -->
<g id="Node000004" class="node">
<title>Node4</title>
<g id="a_Node000004"><a xlink:href="classlibsemigroups_1_1_action.html" target="_top" xlink:title=" ">
<polygon fill="white" stroke="#666666" points="307.88,-239.88 183.88,-239.88 183.88,-209.38 307.88,-209.38 307.88,-239.88"/>
<text text-anchor="start" x="191.88" y="-226.38" font-family="Helvetica,sans-Serif" font-size="10.00">Action&lt; Element, Point,</text>
<text text-anchor="middle" x="245.88" y="-215.12" font-family="Helvetica,sans-Serif" font-size="10.00"> Func, Traits, side::left &gt;</text>
</a>
</g>
</g>
<!-- Node2&#45;&gt;Node4 -->
<g id="edge3_Node000002_Node000004" class="edge">
<title>Node2&#45;&gt;Node4</title>
<g id="a_edge3_Node000002_Node000004"><a xlink:title=" ">
<path fill="none" stroke="#63b8ff" d="M127.98,-157.47C138.83,-171.16 155.09,-189.21 173,-200.62 177.88,-203.74 183.21,-206.49 188.68,-208.91"/>
<polygon fill="#63b8ff" stroke="#63b8ff" points="130.85,-155.47 122.01,-149.64 125.29,-159.71 130.85,-155.47"/>
</a>
</g>
</g>
<!-- Node5 -->
<g id="Node000005" class="node">
<title>Node5</title>
<g id="a_Node000005"><a xlink:href="classlibsemigroups_1_1_konieczny_1_1_d_class.html" target="_top" xlink:title=" ">
<polygon fill="white" stroke="#666666" points="270.38,-191.25 221.38,-191.25 221.38,-172 270.38,-172 270.38,-191.25"/>
<text text-anchor="middle" x="245.88" y="-177.75" font-family="Helvetica,sans-Serif" font-size="10.00">DClass</text>
</a>
</g>
</g>
<!-- Node2&#45;&gt;Node5 -->
<g id="edge4_Node000002_Node000005" class="edge">
<title>Node2&#45;&gt;Node5</title>
<g id="a_edge4_Node000002_Node000005"><a xlink:title=" ">
<path fill="none" stroke="#63b8ff" d="M147.32,-153.01C155.62,-156.38 164.57,-159.8 173,-162.62 188.79,-167.91 206.92,-172.7 221.02,-176.14"/>
<polygon fill="#63b8ff" stroke="#63b8ff" points="148.85,-149.85 138.27,-149.25 146.16,-156.32 148.85,-149.85"/>
</a>
</g>
</g>
<!-- Node6 -->
<g id="Node000006" class="node">
<title>Node6</title>
<g id="a_Node000006"><a xlink:href="classlibsemigroups_1_1_action.html" target="_top" xlink:title="Class for generating the action of a semigroup.">
<polygon fill="white" stroke="#666666" points="314.25,-153.88 177.5,-153.88 177.5,-123.38 314.25,-123.38 314.25,-153.88"/>
<text text-anchor="start" x="185.5" y="-140.38" font-family="Helvetica,sans-Serif" font-size="10.00">Action&lt; Element, Point,</text>
<text text-anchor="middle" x="245.88" y="-129.12" font-family="Helvetica,sans-Serif" font-size="10.00"> Func, Traits, LeftOrRight &gt;</text>
</a>
</g>
</g>
<!-- Node2&#45;&gt;Node6 -->
<g id="edge5_Node000002_Node000006" class="edge">
<title>Node2&#45;&gt;Node6</title>
<g id="a_edge5_Node000002_Node000006"><a xlink:title=" ">
<path fill="none" stroke="#63b8ff" d="M148.65,-138.62C157.49,-138.62 167.3,-138.62 177.19,-138.62"/>
<polygon fill="#63b8ff" stroke="#63b8ff" points="148.82,-135.13 138.82,-138.63 148.82,-142.13 148.82,-135.13"/>
</a>
</g>
</g>
<!-- Node7 -->
<g id="Node000007" class="node">
<title>Node7</title>
<g id="a_Node000007"><a xlink:href="classlibsemigroups_1_1_froidure_pin_base.html" target="_top" xlink:title="Base class for FroidurePin containing non&#45;element specific data and member functions.">
<polygon fill="white" stroke="#666666" points="289.88,-105.25 201.88,-105.25 201.88,-86 289.88,-86 289.88,-105.25"/>
<text text-anchor="middle" x="245.88" y="-91.75" font-family="Helvetica,sans-Serif" font-size="10.00">FroidurePinBase</text>
</a>
</g>
</g>
<!-- Node2&#45;&gt;Node7 -->
<g id="edge6_Node000002_Node000007" class="edge">
<title>Node2&#45;&gt;Node7</title>
<g id="a_edge6_Node000002_Node000007"><a xlink:title=" ">
<path fill="none" stroke="#63b8ff" d="M147.32,-124.24C155.62,-120.87 164.57,-117.45 173,-114.62 182.67,-111.39 193.21,-108.34 203.18,-105.67"/>
<polygon fill="#63b8ff" stroke="#63b8ff" points="146.16,-120.93 138.27,-128 148.85,-127.4 146.16,-120.93"/>
</a>
</g>
</g>
<!-- Node9 -->
<g id="Node000009" class="node">
<title>Node9</title>
<g id="a_Node000009"><a xlink:href="classlibsemigroups_1_1_konieczny.html" target="_top" xlink:title=" ">
<polygon fill="white" stroke="#666666" points="300.75,-67.88 191,-67.88 191,-37.38 300.75,-37.38 300.75,-67.88"/>
<text text-anchor="start" x="199" y="-54.38" font-family="Helvetica,sans-Serif" font-size="10.00">Konieczny&lt; Element,</text>
<text text-anchor="middle" x="245.88" y="-43.12" font-family="Helvetica,sans-Serif" font-size="10.00"> Traits &gt;</text>
</a>
</g>
</g>
<!-- Node2&#45;&gt;Node9 -->
<g id="edge8_Node000002_Node000009" class="edge">
<title>Node2&#45;&gt;Node9</title>
<g id="a_edge8_Node000002_Node000009"><a xlink:title=" ">
<path fill="none" stroke="#63b8ff" d="M127.98,-119.78C138.83,-106.09 155.09,-88.04 173,-76.62 178.44,-73.16 184.43,-70.14 190.56,-67.53"/>
<polygon fill="#63b8ff" stroke="#63b8ff" points="125.29,-117.54 122.01,-127.61 130.85,-121.78 125.29,-117.54"/>
</a>
</g>
</g>
<!-- Node10 -->
<g id="Node000010" class="node">
<title>Node10</title>
<g id="a_Node000010"><a xlink:href="classlibsemigroups_1_1_stephen.html" target="_top" xlink:title="For constructing the word graph of left factors of a word in an f.p. semigroup.">
<polygon fill="white" stroke="#666666" points="318.75,-19.25 173,-19.25 173,0 318.75,0 318.75,-19.25"/>
<text text-anchor="middle" x="245.88" y="-5.75" font-family="Helvetica,sans-Serif" font-size="10.00">Stephen&lt; PresentationType &gt;</text>
</a>
</g>
</g>
<!-- Node2&#45;&gt;Node10 -->
<g id="edge9_Node000002_Node000010" class="edge">
<title>Node2&#45;&gt;Node10</title>
<g id="a_edge9_Node000002_Node000010"><a xlink:title=" ">
<path fill="none" stroke="#63b8ff" d="M119.77,-117.9C127.5,-92.97 143.96,-51.6 173,-28.62 177.55,-25.02 182.73,-22.1 188.16,-19.73"/>
<polygon fill="#63b8ff" stroke="#63b8ff" points="116.5,-116.64 117.09,-127.22 123.22,-118.58 116.5,-116.64"/>
</a>
</g>
</g>
<!-- Node8 -->
<g id="Node000008" class="node">
<title>Node8</title>
<g id="a_Node000008"><a xlink:href="classlibsemigroups_1_1_froidure_pin.html" target="_top" xlink:title="Class implementing the Froidure&#45;Pin algorithm.">
<polygon fill="white" stroke="#666666" points="468.25,-110.88 354.75,-110.88 354.75,-80.38 468.25,-80.38 468.25,-110.88"/>
<text text-anchor="start" x="362.75" y="-97.38" font-family="Helvetica,sans-Serif" font-size="10.00">FroidurePin&lt; Element,</text>
<text text-anchor="middle" x="411.5" y="-86.12" font-family="Helvetica,sans-Serif" font-size="10.00"> Traits &gt;</text>
</a>
</g>
</g>
<!-- Node7&#45;&gt;Node8 -->
<g id="edge7_Node000007_Node000008" class="edge">
<title>Node7&#45;&gt;Node8</title>
<g id="a_edge7_Node000007_Node000008"><a xlink:title=" ">
<path fill="none" stroke="#63b8ff" d="M301.73,-95.62C318.72,-95.62 337.46,-95.62 354.52,-95.62"/>
<polygon fill="#63b8ff" stroke="#63b8ff" points="301.81,-92.13 291.81,-95.63 301.81,-99.13 301.81,-92.13"/>
</a>
</g>
</g>
</g>
</svg>
