<?xml version="1.0" encoding="UTF-8" standalone="no"?>
<!DOCTYPE svg PUBLIC "-//W3C//DTD SVG 1.1//EN"
 "http://www.w3.org/Graphics/SVG/1.1/DTD/svg11.dtd">
<!-- Generated by graphviz version 12.2.1 (20241206.2353)
 -->
<!-- Title: Runner Pages: 1 -->
<svg width="476pt" height="260pt"
 viewBox="0.00 0.00 476.25 259.88" xmlns="http://www.w3.org/2000/svg" xmlns:xlink="http://www.w3.org/1999/xlink">
<g id="graph0" class="graph" transform="scale(1 1) rotate(0) translate(4 255.88)">
<title>Runner</title>
<!-- Node1 -->
<g id="Node000001" class="node">
<title>Node1</title>
<g id="a_Node000001"><a xlink:title="Abstract class for derived classes that run an algorithm.">
<polygon fill="#999999" stroke="#666666" points="137,-126.25 89.5,-126.25 89.5,-107 137,-107 137,-126.25"/>
<text text-anchor="middle" x="113.25" y="-112.75" font-family="Helvetica,sans-Serif" font-size="10.00">Runner</text>
</a>
</g>
</g>
<!-- Node3 -->
<g id="Node000003" class="node">
<title>Node3</title>
<g id="a_Node000003"><a xlink:href="classlibsemigroups_1_1_action.html" target="_top" xlink:title=" ">
<polygon fill="white" stroke="#666666" points="310.5,-251.88 181.25,-251.88 181.25,-221.38 310.5,-221.38 310.5,-251.88"/>
<text text-anchor="start" x="189.25" y="-238.38" font-family="Helvetica,sans-Serif" font-size="10.00">Action&lt; Element, Point,</text>
<text text-anchor="middle" x="245.88" y="-227.12" font-family="Helvetica,sans-Serif" font-size="10.00"> Func, Traits, side::right &gt;</text>
</a>
</g>
</g>
<!-- Node1&#45;&gt;Node3 -->
<g id="edge2_Node000001_Node000003" class="edge">
<title>Node1&#45;&gt;Node3</title>
<g id="a_edge2_Node000001_Node000003"><a xlink:title=" ">
<path fill="none" stroke="#63b8ff" d="M122,-137.03C131.12,-158.47 148.24,-191.77 173,-211.62 177.43,-215.18 182.4,-218.24 187.61,-220.88"/>
<polygon fill="#63b8ff" stroke="#63b8ff" points="125.31,-135.87 118.32,-127.91 118.81,-138.49 125.31,-135.87"/>
</a>
</g>
</g>
<!-- Node4 -->
<g id="Node000004" class="node">
<title>Node4</title>
<g id="a_Node000004"><a xlink:href="classlibsemigroups_1_1_action.html" target="_top" xlink:title=" ">
<polygon fill="white" stroke="#666666" points="307.88,-202.88 183.88,-202.88 183.88,-172.38 307.88,-172.38 307.88,-202.88"/>
<text text-anchor="start" x="191.88" y="-189.38" font-family="Helvetica,sans-Serif" font-size="10.00">Action&lt; Element, Point,</text>
<text text-anchor="middle" x="245.88" y="-178.12" font-family="Helvetica,sans-Serif" font-size="10.00"> Func, Traits, side::left &gt;</text>
</a>
</g>
</g>
<!-- Node1&#45;&gt;Node4 -->
<g id="edge3_Node000001_Node000004" class="edge">
<title>Node1&#45;&gt;Node4</title>
<g id="a_edge3_Node000001_Node000004"><a xlink:title=" ">
<path fill="none" stroke="#63b8ff" d="M133.08,-133.99C144.09,-143.44 158.61,-154.77 173,-162.62 179.26,-166.04 186.08,-169.13 192.94,-171.88"/>
<polygon fill="#63b8ff" stroke="#63b8ff" points="135.69,-131.62 125.88,-127.61 131.05,-136.86 135.69,-131.62"/>
</a>
</g>
</g>
<!-- Node5 -->
<g id="Node000005" class="node">
<title>Node5</title>
<g id="a_Node000005"><a xlink:href="classlibsemigroups_1_1_action.html" target="_top" xlink:title="Class for generating the action of a semigroup.">
<polygon fill="white" stroke="#666666" points="314.25,-153.88 177.5,-153.88 177.5,-123.38 314.25,-123.38 314.25,-153.88"/>
<text text-anchor="start" x="185.5" y="-140.38" font-family="Helvetica,sans-Serif" font-size="10.00">Action&lt; Element, Point,</text>
<text text-anchor="middle" x="245.88" y="-129.12" font-family="Helvetica,sans-Serif" font-size="10.00"> Func, Traits, LeftOrRight &gt;</text>
</a>
</g>
</g>
<!-- Node1&#45;&gt;Node5 -->
<g id="edge4_Node000001_Node000005" class="edge">
<title>Node1&#45;&gt;Node5</title>
<g id="a_edge4_Node000001_Node000005"><a xlink:title=" ">
<path fill="none" stroke="#63b8ff" d="M148.65,-122.42C157.49,-123.91 167.3,-125.56 177.19,-127.23"/>
<polygon fill="#63b8ff" stroke="#63b8ff" points="149.24,-118.97 138.79,-120.76 148.07,-125.87 149.24,-118.97"/>
</a>
</g>
</g>
<!-- Node6 -->
<g id="Node000006" class="node">
<title>Node6</title>
<g id="a_Node000006"><a xlink:href="classlibsemigroups_1_1_froidure_pin_base.html" target="_top" xlink:title="Base class for FroidurePin containing non&#45;element specific data and member functions.">
<polygon fill="white" stroke="#666666" points="289.88,-105.25 201.88,-105.25 201.88,-86 289.88,-86 289.88,-105.25"/>
<text text-anchor="middle" x="245.88" y="-91.75" font-family="Helvetica,sans-Serif" font-size="10.00">FroidurePinBase</text>
</a>
</g>
</g>
<!-- Node1&#45;&gt;Node6 -->
<g id="edge5_Node000001_Node000006" class="edge">
<title>Node1&#45;&gt;Node6</title>
<g id="a_edge5_Node000001_Node000006"><a xlink:title=" ">
<path fill="none" stroke="#63b8ff" d="M148.44,-111.13C164.66,-108.52 184.22,-105.38 201.47,-102.6"/>
<polygon fill="#63b8ff" stroke="#63b8ff" points="148.11,-107.64 138.8,-112.68 149.23,-114.55 148.11,-107.64"/>
</a>
</g>
</g>
<!-- Node8 -->
<g id="Node000008" class="node">
<title>Node8</title>
<g id="a_Node000008"><a xlink:href="classlibsemigroups_1_1_konieczny.html" target="_top" xlink:title="Class implementing Konieczny&#39;s algorithm.">
<polygon fill="white" stroke="#666666" points="300.75,-67.88 191,-67.88 191,-37.38 300.75,-37.38 300.75,-67.88"/>
<text text-anchor="start" x="199" y="-54.38" font-family="Helvetica,sans-Serif" font-size="10.00">Konieczny&lt; Element,</text>
<text text-anchor="middle" x="245.88" y="-43.12" font-family="Helvetica,sans-Serif" font-size="10.00"> Traits &gt;</text>
</a>
</g>
</g>
<!-- Node1&#45;&gt;Node8 -->
<g id="edge7_Node000001_Node000008" class="edge">
<title>Node1&#45;&gt;Node8</title>
<g id="a_edge7_Node000001_Node000008"><a xlink:title=" ">
<path fill="none" stroke="#63b8ff" d="M135.71,-99.9C146.47,-92.08 159.96,-83.08 173,-76.62 179.13,-73.59 185.73,-70.79 192.37,-68.27"/>
<polygon fill="#63b8ff" stroke="#63b8ff" points="133.81,-96.95 127.9,-105.75 138,-102.56 133.81,-96.95"/>
</a>
</g>
</g>
<!-- Node9 -->
<g id="Node000009" class="node">
<title>Node9</title>
<g id="a_Node000009"><a xlink:href="classlibsemigroups_1_1_stephen.html" target="_top" xlink:title="For constructing the word graph of left factors of a word in an f.p. semigroup.">
<polygon fill="white" stroke="#666666" points="318.75,-19.25 173,-19.25 173,0 318.75,0 318.75,-19.25"/>
<text text-anchor="middle" x="245.88" y="-5.75" font-family="Helvetica,sans-Serif" font-size="10.00">Stephen&lt; PresentationType &gt;</text>
</a>
</g>
</g>
<!-- Node1&#45;&gt;Node9 -->
<g id="edge8_Node000001_Node000009" class="edge">
<title>Node1&#45;&gt;Node9</title>
<g id="a_edge8_Node000001_Node000009"><a xlink:title=" ">
<path fill="none" stroke="#63b8ff" d="M122.66,-96.18C132.01,-76 149.01,-45.76 173,-28.62 178.04,-25.02 183.72,-22.11 189.62,-19.74"/>
<polygon fill="#63b8ff" stroke="#63b8ff" points="119.46,-94.77 118.66,-105.33 125.87,-97.57 119.46,-94.77"/>
</a>
</g>
</g>
<!-- Node2 -->
<g id="Node000002" class="node">
<title>Node2</title>
<g id="a_Node000002"><a xlink:href="classlibsemigroups_1_1_reporter.html" target="_top" xlink:title="Collection of values related to reporting.">
<polygon fill="white" stroke="#666666" points="53.5,-126.25 0,-126.25 0,-107 53.5,-107 53.5,-126.25"/>
<text text-anchor="middle" x="26.75" y="-112.75" font-family="Helvetica,sans-Serif" font-size="10.00">Reporter</text>
</a>
</g>
</g>
<!-- Node2&#45;&gt;Node1 -->
<g id="edge1_Node000001_Node000002" class="edge">
<title>Node2&#45;&gt;Node1</title>
<g id="a_edge1_Node000001_Node000002"><a xlink:title=" ">
<path fill="none" stroke="#63b8ff" d="M64.92,-116.62C73.17,-116.62 81.68,-116.62 89.18,-116.62"/>
<polygon fill="#63b8ff" stroke="#63b8ff" points="65.08,-113.13 55.08,-116.63 65.08,-120.13 65.08,-113.13"/>
</a>
</g>
</g>
<!-- Node7 -->
<g id="Node000007" class="node">
<title>Node7</title>
<g id="a_Node000007"><a xlink:href="classlibsemigroups_1_1_froidure_pin.html" target="_top" xlink:title="Class implementing the Froidure&#45;Pin algorithm.">
<polygon fill="white" stroke="#666666" points="468.25,-110.88 354.75,-110.88 354.75,-80.38 468.25,-80.38 468.25,-110.88"/>
<text text-anchor="start" x="362.75" y="-97.38" font-family="Helvetica,sans-Serif" font-size="10.00">FroidurePin&lt; Element,</text>
<text text-anchor="middle" x="411.5" y="-86.12" font-family="Helvetica,sans-Serif" font-size="10.00"> Traits &gt;</text>
</a>
</g>
</g>
<!-- Node6&#45;&gt;Node7 -->
<g id="edge6_Node000006_Node000007" class="edge">
<title>Node6&#45;&gt;Node7</title>
<g id="a_edge6_Node000006_Node000007"><a xlink:title=" ">
<path fill="none" stroke="#63b8ff" d="M301.73,-95.62C318.72,-95.62 337.46,-95.62 354.52,-95.62"/>
<polygon fill="#63b8ff" stroke="#63b8ff" points="301.81,-92.13 291.81,-95.63 301.81,-99.13 301.81,-92.13"/>
</a>
</g>
</g>
</g>
</svg>
