<?xml version="1.0" encoding="UTF-8" standalone="no"?>
<!DOCTYPE svg PUBLIC "-//W3C//DTD SVG 1.1//EN"
 "http://www.w3.org/Graphics/SVG/1.1/DTD/svg11.dtd">
<!-- Generated by graphviz version 12.2.1 (0)
 -->
<!-- Title: FroidurePinBase Pages: 1 -->
<svg width="122pt" height="204pt"
 viewBox="0.00 0.00 121.50 204.25" xmlns="http://www.w3.org/2000/svg" xmlns:xlink="http://www.w3.org/1999/xlink">
<g id="graph0" class="graph" transform="scale(1 1) rotate(0) translate(4 200.25)">
<title>FroidurePinBase</title>
<!-- Node1 -->
<g id="Node000001" class="node">
<title>Node1</title>
<g id="a_Node000001"><a xlink:title="Base class for FroidurePin containing non&#45;element specific data and member functions.">
<polygon fill="#999999" stroke="#666666" points="100.75,-85.75 12.75,-85.75 12.75,-66.5 100.75,-66.5 100.75,-85.75"/>
<text text-anchor="middle" x="56.75" y="-72.25" font-family="Helvetica,sans-Serif" font-size="10.00">FroidurePinBase</text>
</a>
</g>
</g>
<!-- Node4 -->
<g id="Node000004" class="node">
<title>Node4</title>
<g id="a_Node000004"><a xlink:href="classlibsemigroups_1_1_froidure_pin.html" target="_top" xlink:title="Class implementing the Froidure&#45;Pin algorithm.">
<polygon fill="white" stroke="#666666" points="113.5,-30.5 0,-30.5 0,0 113.5,0 113.5,-30.5"/>
<text text-anchor="start" x="8" y="-17" font-family="Helvetica,sans-Serif" font-size="10.00">FroidurePin&lt; Element,</text>
<text text-anchor="middle" x="56.75" y="-5.75" font-family="Helvetica,sans-Serif" font-size="10.00"> Traits &gt;</text>
</a>
</g>
</g>
<!-- Node1&#45;&gt;Node4 -->
<g id="edge3_Node000001_Node000004" class="edge">
<title>Node1&#45;&gt;Node4</title>
<g id="a_edge3_Node000001_Node000004"><a xlink:title=" ">
<path fill="none" stroke="#63b8ff" d="M56.75,-54.92C56.75,-46.99 56.75,-38.06 56.75,-30.78"/>
<polygon fill="#63b8ff" stroke="#63b8ff" points="53.25,-54.67 56.75,-64.67 60.25,-54.67 53.25,-54.67"/>
</a>
</g>
</g>
<!-- Node2 -->
<g id="Node000002" class="node">
<title>Node2</title>
<g id="a_Node000002"><a xlink:href="classlibsemigroups_1_1_runner.html" target="_top" xlink:title="Abstract class for derived classes that run an algorithm.">
<polygon fill="white" stroke="#666666" points="80.5,-141 33,-141 33,-121.75 80.5,-121.75 80.5,-141"/>
<text text-anchor="middle" x="56.75" y="-127.5" font-family="Helvetica,sans-Serif" font-size="10.00">Runner</text>
</a>
</g>
</g>
<!-- Node2&#45;&gt;Node1 -->
<g id="edge1_Node000001_Node000002" class="edge">
<title>Node2&#45;&gt;Node1</title>
<g id="a_edge1_Node000001_Node000002"><a xlink:title=" ">
<path fill="none" stroke="#63b8ff" d="M56.75,-110.13C56.75,-101.84 56.75,-92.67 56.75,-86.11"/>
<polygon fill="#63b8ff" stroke="#63b8ff" points="53.25,-110.07 56.75,-120.07 60.25,-110.07 53.25,-110.07"/>
</a>
</g>
</g>
<!-- Node3 -->
<g id="Node000003" class="node">
<title>Node3</title>
<g id="a_Node000003"><a xlink:href="classlibsemigroups_1_1_reporter.html" target="_top" xlink:title="Collection of values related to reporting.">
<polygon fill="white" stroke="#666666" points="83.5,-196.25 30,-196.25 30,-177 83.5,-177 83.5,-196.25"/>
<text text-anchor="middle" x="56.75" y="-182.75" font-family="Helvetica,sans-Serif" font-size="10.00">Reporter</text>
</a>
</g>
</g>
<!-- Node3&#45;&gt;Node2 -->
<g id="edge2_Node000002_Node000003" class="edge">
<title>Node3&#45;&gt;Node2</title>
<g id="a_edge2_Node000002_Node000003"><a xlink:title=" ">
<path fill="none" stroke="#63b8ff" d="M56.75,-165.38C56.75,-157.09 56.75,-147.92 56.75,-141.36"/>
<polygon fill="#63b8ff" stroke="#63b8ff" points="53.25,-165.32 56.75,-175.32 60.25,-165.32 53.25,-165.32"/>
</a>
</g>
</g>
</g>
</svg>
