<?xml version="1.0" encoding="UTF-8" standalone="no"?>
<!DOCTYPE svg PUBLIC "-//W3C//DTD SVG 1.1//EN"
 "http://www.w3.org/Graphics/SVG/1.1/DTD/svg11.dtd">
<!-- Generated by graphviz version 12.2.1 (0)
 -->
<!-- Title: PathsFromToRootsCommon Pages: 1 -->
<svg width="194pt" height="83pt"
 viewBox="0.00 0.00 194.25 82.50" xmlns="http://www.w3.org/2000/svg" xmlns:xlink="http://www.w3.org/1999/xlink">
<g id="graph0" class="graph" transform="scale(1 1) rotate(0) translate(4 78.5)">
<title>PathsFromToRootsCommon</title>
<!-- Node1 -->
<g id="Node000001" class="node">
<title>Node1</title>
<g id="a_Node000001"><a xlink:title=" ">
<polygon fill="#999999" stroke="#666666" points="166.38,-74.5 25.88,-74.5 25.88,-55.25 166.38,-55.25 166.38,-74.5"/>
<text text-anchor="middle" x="96.12" y="-61" font-family="Helvetica,sans-Serif" font-size="10.00">PathsFromToRootsCommon</text>
</a>
</g>
</g>
<!-- Node2 -->
<g id="Node000002" class="node">
<title>Node2</title>
<g id="a_Node000002"><a xlink:href="classlibsemigroups_1_1forest_1_1_paths_from_roots.html" target="_top" xlink:title="Range for iterating through paths in a Forest.">
<polygon fill="white" stroke="#666666" points="90.25,-19.25 0,-19.25 0,0 90.25,0 90.25,-19.25"/>
<text text-anchor="middle" x="45.12" y="-5.75" font-family="Helvetica,sans-Serif" font-size="10.00">PathsFromRoots</text>
</a>
</g>
</g>
<!-- Node1&#45;&gt;Node2 -->
<g id="edge1_Node000001_Node000002" class="edge">
<title>Node1&#45;&gt;Node2</title>
<g id="a_edge1_Node000001_Node000002"><a xlink:title=" ">
<path fill="none" stroke="#63b8ff" d="M79.76,-46.79C71.11,-37.75 60.83,-27.02 53.73,-19.61"/>
<polygon fill="#63b8ff" stroke="#63b8ff" points="77.21,-49.19 86.66,-53.99 82.27,-44.35 77.21,-49.19"/>
</a>
</g>
</g>
<!-- Node3 -->
<g id="Node000003" class="node">
<title>Node3</title>
<g id="a_Node000003"><a xlink:href="classlibsemigroups_1_1forest_1_1_paths_to_roots.html" target="_top" xlink:title="Range for iterating through paths in a Forest.">
<polygon fill="white" stroke="#666666" points="186.25,-19.25 108,-19.25 108,0 186.25,0 186.25,-19.25"/>
<text text-anchor="middle" x="147.12" y="-5.75" font-family="Helvetica,sans-Serif" font-size="10.00">PathsToRoots</text>
</a>
</g>
</g>
<!-- Node1&#45;&gt;Node3 -->
<g id="edge2_Node000001_Node000003" class="edge">
<title>Node1&#45;&gt;Node3</title>
<g id="a_edge2_Node000001_Node000003"><a xlink:title=" ">
<path fill="none" stroke="#63b8ff" d="M112.49,-46.79C121.14,-37.75 131.42,-27.02 138.52,-19.61"/>
<polygon fill="#63b8ff" stroke="#63b8ff" points="109.98,-44.35 105.59,-53.99 115.04,-49.19 109.98,-44.35"/>
</a>
</g>
</g>
</g>
</svg>
