<?xml version="1.0" encoding="UTF-8" standalone="no"?>
<!DOCTYPE svg PUBLIC "-//W3C//DTD SVG 1.1//EN"
 "http://www.w3.org/Graphics/SVG/1.1/DTD/svg11.dtd">
<!-- Generated by graphviz version 2.43.0 (0)
 -->
<!-- Title: Reporter Pages: 1 -->
<svg width="478pt" height="258pt"
 viewBox="0.00 0.00 478.00 257.50" xmlns="http://www.w3.org/2000/svg" xmlns:xlink="http://www.w3.org/1999/xlink">
<g id="graph0" class="graph" transform="scale(1 1) rotate(0) translate(4 253.5)">
<title>Reporter</title>
<!-- Node1 -->
<g id="Node000001" class="node">
<title>Node1</title>
<g id="a_Node000001"><a xlink:title="Collection of values related to reporting.">
<polygon fill="#999999" stroke="#666666" points="54,-126 0,-126 0,-107 54,-107 54,-126"/>
<text text-anchor="middle" x="27" y="-114" font-family="Helvetica,sans-Serif" font-size="10.00">Reporter</text>
</a>
</g>
</g>
<!-- Node2 -->
<g id="Node000002" class="node">
<title>Node2</title>
<g id="a_Node000002"><a xlink:href="classlibsemigroups_1_1_runner.html" target="_top" xlink:title="Abstract class for derived classes that run an algorithm.">
<polygon fill="white" stroke="#666666" points="138,-126 90,-126 90,-107 138,-107 138,-126"/>
<text text-anchor="middle" x="114" y="-114" font-family="Helvetica,sans-Serif" font-size="10.00">Runner</text>
</a>
</g>
</g>
<!-- Node1&#45;&gt;Node2 -->
<g id="edge1_Node000001_Node000002" class="edge">
<title>Node1&#45;&gt;Node2</title>
<g id="a_edge1_Node000001_Node000002"><a xlink:title=" ">
<path fill="none" stroke="#63b8ff" d="M64.58,-116.5C73.12,-116.5 81.98,-116.5 89.75,-116.5"/>
<polygon fill="#63b8ff" stroke="#63b8ff" points="64.43,-113 54.43,-116.5 64.43,-120 64.43,-113"/>
</a>
</g>
</g>
<!-- Node3 -->
<g id="Node000003" class="node">
<title>Node3</title>
<g id="a_Node000003"><a xlink:href="classlibsemigroups_1_1_action.html" target="_top" xlink:title=" ">
<polygon fill="white" stroke="#666666" points="312,-249.5 182,-249.5 182,-219.5 312,-219.5 312,-249.5"/>
<text text-anchor="start" x="190" y="-237.5" font-family="Helvetica,sans-Serif" font-size="10.00">Action&lt; Element, Point,</text>
<text text-anchor="middle" x="247" y="-226.5" font-family="Helvetica,sans-Serif" font-size="10.00"> Func, Traits, side::right &gt;</text>
</a>
</g>
</g>
<!-- Node2&#45;&gt;Node3 -->
<g id="edge2_Node000002_Node000003" class="edge">
<title>Node2&#45;&gt;Node3</title>
<g id="a_edge2_Node000002_Node000003"><a xlink:title=" ">
<path fill="none" stroke="#63b8ff" d="M122.29,-135.55C131.34,-156.75 148.73,-190.64 174,-210.5 178.35,-213.92 183.21,-216.86 188.3,-219.39"/>
<polygon fill="#63b8ff" stroke="#63b8ff" points="125.43,-133.96 118.42,-126.01 118.94,-136.6 125.43,-133.96"/>
</a>
</g>
</g>
<!-- Node4 -->
<g id="Node000004" class="node">
<title>Node4</title>
<g id="a_Node000004"><a xlink:href="classlibsemigroups_1_1_action.html" target="_top" xlink:title=" ">
<polygon fill="white" stroke="#666666" points="309.5,-201.5 184.5,-201.5 184.5,-171.5 309.5,-171.5 309.5,-201.5"/>
<text text-anchor="start" x="192.5" y="-189.5" font-family="Helvetica,sans-Serif" font-size="10.00">Action&lt; Element, Point,</text>
<text text-anchor="middle" x="247" y="-178.5" font-family="Helvetica,sans-Serif" font-size="10.00"> Func, Traits, side::left &gt;</text>
</a>
</g>
</g>
<!-- Node2&#45;&gt;Node4 -->
<g id="edge3_Node000002_Node000004" class="edge">
<title>Node2&#45;&gt;Node4</title>
<g id="a_edge3_Node000002_Node000004"><a xlink:title=" ">
<path fill="none" stroke="#63b8ff" d="M132.82,-133.01C143.98,-142.66 159.04,-154.48 174,-162.5 180.16,-165.8 186.85,-168.76 193.59,-171.38"/>
<polygon fill="#63b8ff" stroke="#63b8ff" points="134.91,-130.19 125.11,-126.15 130.25,-135.42 134.91,-130.19"/>
</a>
</g>
</g>
<!-- Node5 -->
<g id="Node000005" class="node">
<title>Node5</title>
<g id="a_Node000005"><a xlink:href="classlibsemigroups_1_1_action.html" target="_top" xlink:title="Class for generating the action of a semigroup.">
<polygon fill="white" stroke="#666666" points="315.5,-153.5 178.5,-153.5 178.5,-123.5 315.5,-123.5 315.5,-153.5"/>
<text text-anchor="start" x="186.5" y="-141.5" font-family="Helvetica,sans-Serif" font-size="10.00">Action&lt; Element, Point,</text>
<text text-anchor="middle" x="247" y="-130.5" font-family="Helvetica,sans-Serif" font-size="10.00"> Func, Traits, LeftOrRight &gt;</text>
</a>
</g>
</g>
<!-- Node2&#45;&gt;Node5 -->
<g id="edge4_Node000002_Node000005" class="edge">
<title>Node2&#45;&gt;Node5</title>
<g id="a_edge4_Node000002_Node000005"><a xlink:title=" ">
<path fill="none" stroke="#63b8ff" d="M148.07,-122.05C157.38,-123.62 167.85,-125.38 178.4,-127.15"/>
<polygon fill="#63b8ff" stroke="#63b8ff" points="148.56,-118.59 138.12,-120.38 147.4,-125.49 148.56,-118.59"/>
</a>
</g>
</g>
<!-- Node6 -->
<g id="Node000006" class="node">
<title>Node6</title>
<g id="a_Node000006"><a xlink:href="classlibsemigroups_1_1_froidure_pin_base.html" target="_top" xlink:title="Base class for FroidurePin containing non&#45;element specific data and member functions.">
<polygon fill="white" stroke="#666666" points="291.5,-105 202.5,-105 202.5,-86 291.5,-86 291.5,-105"/>
<text text-anchor="middle" x="247" y="-93" font-family="Helvetica,sans-Serif" font-size="10.00">FroidurePinBase</text>
</a>
</g>
</g>
<!-- Node2&#45;&gt;Node6 -->
<g id="edge5_Node000002_Node000006" class="edge">
<title>Node2&#45;&gt;Node6</title>
<g id="a_edge5_Node000002_Node000006"><a xlink:title=" ">
<path fill="none" stroke="#63b8ff" d="M148.34,-111.15C164.79,-108.52 184.83,-105.31 202.47,-102.48"/>
<polygon fill="#63b8ff" stroke="#63b8ff" points="147.44,-107.76 138.12,-112.79 148.55,-114.67 147.44,-107.76"/>
</a>
</g>
</g>
<!-- Node8 -->
<g id="Node000008" class="node">
<title>Node8</title>
<g id="a_Node000008"><a xlink:href="classlibsemigroups_1_1_konieczny.html" target="_top" xlink:title="Class implementing Konieczny&#39;s algorithm.">
<polygon fill="white" stroke="#666666" points="302,-67.5 192,-67.5 192,-37.5 302,-37.5 302,-67.5"/>
<text text-anchor="start" x="200" y="-55.5" font-family="Helvetica,sans-Serif" font-size="10.00">Konieczny&lt; Element,</text>
<text text-anchor="middle" x="247" y="-44.5" font-family="Helvetica,sans-Serif" font-size="10.00"> Traits &gt;</text>
</a>
</g>
</g>
<!-- Node2&#45;&gt;Node8 -->
<g id="edge7_Node000002_Node000008" class="edge">
<title>Node2&#45;&gt;Node8</title>
<g id="a_edge7_Node000002_Node000008"><a xlink:title=" ">
<path fill="none" stroke="#63b8ff" d="M135.99,-100.76C146.93,-93.05 160.76,-84.05 174,-77.5 181.35,-73.86 189.37,-70.52 197.29,-67.55"/>
<polygon fill="#63b8ff" stroke="#63b8ff" points="133.62,-98.16 127.56,-106.85 137.72,-103.83 133.62,-98.16"/>
</a>
</g>
</g>
<!-- Node9 -->
<g id="Node000009" class="node">
<title>Node9</title>
<g id="a_Node000009"><a xlink:href="classlibsemigroups_1_1_stephen.html" target="_top" xlink:title="For constructing the word graph of left factors of a word in an f.p. semigroup.">
<polygon fill="white" stroke="#666666" points="320,-19 174,-19 174,0 320,0 320,-19"/>
<text text-anchor="middle" x="247" y="-7" font-family="Helvetica,sans-Serif" font-size="10.00">Stephen&lt; PresentationType &gt;</text>
</a>
</g>
</g>
<!-- Node2&#45;&gt;Node9 -->
<g id="edge8_Node000002_Node000009" class="edge">
<title>Node2&#45;&gt;Node9</title>
<g id="a_edge8_Node000002_Node000009"><a xlink:title=" ">
<path fill="none" stroke="#63b8ff" d="M122.8,-97.48C132.05,-77.33 149.38,-46.04 174,-28.5 179.47,-24.6 185.7,-21.5 192.14,-19.04"/>
<polygon fill="#63b8ff" stroke="#63b8ff" points="119.5,-96.31 118.71,-106.88 125.91,-99.11 119.5,-96.31"/>
</a>
</g>
</g>
<!-- Node7 -->
<g id="Node000007" class="node">
<title>Node7</title>
<g id="a_Node000007"><a xlink:href="classlibsemigroups_1_1_froidure_pin.html" target="_top" xlink:title="Class implementing the Froidure&#45;Pin algorithm.">
<polygon fill="white" stroke="#666666" points="470,-110.5 356,-110.5 356,-80.5 470,-80.5 470,-110.5"/>
<text text-anchor="start" x="364" y="-98.5" font-family="Helvetica,sans-Serif" font-size="10.00">FroidurePin&lt; Element,</text>
<text text-anchor="middle" x="413" y="-87.5" font-family="Helvetica,sans-Serif" font-size="10.00"> Traits &gt;</text>
</a>
</g>
</g>
<!-- Node6&#45;&gt;Node7 -->
<g id="edge6_Node000006_Node000007" class="edge">
<title>Node6&#45;&gt;Node7</title>
<g id="a_edge6_Node000006_Node000007"><a xlink:title=" ">
<path fill="none" stroke="#63b8ff" d="M302,-95.5C319.29,-95.5 338.46,-95.5 355.89,-95.5"/>
<polygon fill="#63b8ff" stroke="#63b8ff" points="301.52,-92 291.52,-95.5 301.52,-99 301.52,-92"/>
</a>
</g>
</g>
</g>
</svg>
