<?xml version="1.0" encoding="UTF-8" standalone="no"?>
<!DOCTYPE svg PUBLIC "-//W3C//DTD SVG 1.1//EN"
 "http://www.w3.org/Graphics/SVG/1.1/DTD/svg11.dtd">
<!-- Generated by graphviz version 12.2.1 (0)
 -->
<!-- Title: PresentationBase Pages: 1 -->
<svg width="392pt" height="131pt"
 viewBox="0.00 0.00 392.00 130.50" xmlns="http://www.w3.org/2000/svg" xmlns:xlink="http://www.w3.org/1999/xlink">
<g id="graph0" class="graph" transform="scale(1 1) rotate(0) translate(4 126.5)">
<title>PresentationBase</title>
<!-- Node1 -->
<g id="Node000001" class="node">
<title>Node1</title>
<g id="a_Node000001"><a xlink:title="Empty base for presentation&#45;like classes.">
<polygon fill="#999999" stroke="#666666" points="93.25,-67.88 0,-67.88 0,-48.62 93.25,-48.62 93.25,-67.88"/>
<text text-anchor="middle" x="46.62" y="-54.38" font-family="Helvetica,sans-Serif" font-size="10.00">PresentationBase</text>
</a>
</g>
</g>
<!-- Node2 -->
<g id="Node000002" class="node">
<title>Node2</title>
<g id="a_Node000002"><a xlink:href="classlibsemigroups_1_1_presentation.html" target="_top" xlink:title=" ">
<polygon fill="white" stroke="#666666" points="240.12,-122.5 134.12,-122.5 134.12,-92 240.12,-92 240.12,-122.5"/>
<text text-anchor="start" x="142.12" y="-109" font-family="Helvetica,sans-Serif" font-size="10.00">Presentation&lt; native</text>
<text text-anchor="middle" x="187.12" y="-97.75" font-family="Helvetica,sans-Serif" font-size="10.00">_word_type &gt;</text>
</a>
</g>
</g>
<!-- Node1&#45;&gt;Node2 -->
<g id="edge1_Node000001_Node000002" class="edge">
<title>Node1&#45;&gt;Node2</title>
<g id="a_edge1_Node000001_Node000002"><a xlink:title=" ">
<path fill="none" stroke="#63b8ff" d="M86.74,-72.09C103.86,-78.14 124.03,-85.28 141.71,-91.54"/>
<polygon fill="#63b8ff" stroke="#63b8ff" points="88.01,-68.82 77.41,-68.79 85.67,-75.42 88.01,-68.82"/>
</a>
</g>
</g>
<!-- Node3 -->
<g id="Node000003" class="node">
<title>Node3</title>
<g id="a_Node000003"><a xlink:href="classlibsemigroups_1_1_presentation.html" target="_top" xlink:title=" ">
<polygon fill="white" stroke="#666666" points="245,-73.5 129.25,-73.5 129.25,-43 245,-43 245,-73.5"/>
<text text-anchor="start" x="137.25" y="-60" font-family="Helvetica,sans-Serif" font-size="10.00">Presentation&lt; std::</text>
<text text-anchor="middle" x="187.12" y="-48.75" font-family="Helvetica,sans-Serif" font-size="10.00">vector&lt; letter_type &gt; &gt;</text>
</a>
</g>
</g>
<!-- Node1&#45;&gt;Node3 -->
<g id="edge2_Node000001_Node000003" class="edge">
<title>Node1&#45;&gt;Node3</title>
<g id="a_edge2_Node000001_Node000003"><a xlink:title=" ">
<path fill="none" stroke="#63b8ff" d="M105.15,-58.25C113.07,-58.25 121.2,-58.25 129.12,-58.25"/>
<polygon fill="#63b8ff" stroke="#63b8ff" points="105.26,-54.75 95.26,-58.25 105.26,-61.75 105.26,-54.75"/>
</a>
</g>
</g>
<!-- Node4 -->
<g id="Node000004" class="node">
<title>Node4</title>
<g id="a_Node000004"><a xlink:href="classlibsemigroups_1_1_presentation.html" target="_top" xlink:title="For an implementation of presentations for semigroups or monoids.">
<polygon fill="white" stroke="#666666" points="242.75,-24.88 131.5,-24.88 131.5,-5.63 242.75,-5.63 242.75,-24.88"/>
<text text-anchor="middle" x="187.12" y="-11.38" font-family="Helvetica,sans-Serif" font-size="10.00">Presentation&lt; Word &gt;</text>
</a>
</g>
</g>
<!-- Node1&#45;&gt;Node4 -->
<g id="edge3_Node000001_Node000004" class="edge">
<title>Node1&#45;&gt;Node4</title>
<g id="a_edge3_Node000001_Node000004"><a xlink:title=" ">
<path fill="none" stroke="#63b8ff" d="M90.98,-44.79C111.32,-38.47 135.14,-31.08 153.86,-25.27"/>
<polygon fill="#63b8ff" stroke="#63b8ff" points="90.06,-41.41 81.54,-47.72 92.13,-48.1 90.06,-41.41"/>
</a>
</g>
</g>
<!-- Node5 -->
<g id="Node000005" class="node">
<title>Node5</title>
<g id="a_Node000005"><a xlink:href="classlibsemigroups_1_1_inverse_presentation.html" target="_top" xlink:title="For an implementation of inverse presentations for semigroups or monoids.">
<polygon fill="white" stroke="#666666" points="384,-30.5 281,-30.5 281,0 384,0 384,-30.5"/>
<text text-anchor="start" x="289" y="-17" font-family="Helvetica,sans-Serif" font-size="10.00">InversePresentation</text>
<text text-anchor="middle" x="332.5" y="-5.75" font-family="Helvetica,sans-Serif" font-size="10.00">&lt; Word &gt;</text>
</a>
</g>
</g>
<!-- Node4&#45;&gt;Node5 -->
<g id="edge4_Node000004_Node000005" class="edge">
<title>Node4&#45;&gt;Node5</title>
<g id="a_edge4_Node000004_Node000005"><a xlink:title=" ">
<path fill="none" stroke="#63b8ff" d="M254.56,-15.25C263.32,-15.25 272.18,-15.25 280.62,-15.25"/>
<polygon fill="#63b8ff" stroke="#63b8ff" points="254.66,-11.75 244.66,-15.25 254.66,-18.75 254.66,-11.75"/>
</a>
</g>
</g>
</g>
</svg>
