<?xml version="1.0" encoding="UTF-8" standalone="no"?>
<!DOCTYPE svg PUBLIC "-//W3C//DTD SVG 1.1//EN"
 "http://www.w3.org/Graphics/SVG/1.1/DTD/svg11.dtd">
<!-- Generated by graphviz version 2.43.0 (0)
 -->
<!-- Title: PresentationBase Pages: 1 -->
<svg width="394pt" height="129pt"
 viewBox="0.00 0.00 394.00 129.00" xmlns="http://www.w3.org/2000/svg" xmlns:xlink="http://www.w3.org/1999/xlink">
<g id="graph0" class="graph" transform="scale(1 1) rotate(0) translate(4 125)">
<title>PresentationBase</title>
<!-- Node1 -->
<g id="Node000001" class="node">
<title>Node1</title>
<g id="a_Node000001"><a xlink:title="Empty base for presentation&#45;like classes.">
<polygon fill="#999999" stroke="#666666" points="94,-67.5 0,-67.5 0,-48.5 94,-48.5 94,-67.5"/>
<text text-anchor="middle" x="47" y="-55.5" font-family="Helvetica,sans-Serif" font-size="10.00">PresentationBase</text>
</a>
</g>
</g>
<!-- Node2 -->
<g id="Node000002" class="node">
<title>Node2</title>
<g id="a_Node000002"><a xlink:href="classlibsemigroups_1_1_presentation.html" target="_top" xlink:title=" ">
<polygon fill="white" stroke="#666666" points="241.5,-121 134.5,-121 134.5,-91 241.5,-91 241.5,-121"/>
<text text-anchor="start" x="142.5" y="-109" font-family="Helvetica,sans-Serif" font-size="10.00">Presentation&lt; native</text>
<text text-anchor="middle" x="188" y="-98" font-family="Helvetica,sans-Serif" font-size="10.00">_word_type &gt;</text>
</a>
</g>
</g>
<!-- Node1&#45;&gt;Node2 -->
<g id="edge1_Node000001_Node000002" class="edge">
<title>Node1&#45;&gt;Node2</title>
<g id="a_edge1_Node000001_Node000002"><a xlink:title=" ">
<path fill="none" stroke="#63b8ff" d="M85.31,-70.89C103.2,-77.06 124.74,-84.5 143.38,-90.94"/>
<polygon fill="#63b8ff" stroke="#63b8ff" points="86.39,-67.55 75.79,-67.6 84.1,-74.17 86.39,-67.55"/>
</a>
</g>
</g>
<!-- Node3 -->
<g id="Node000003" class="node">
<title>Node3</title>
<g id="a_Node000003"><a xlink:href="classlibsemigroups_1_1_presentation.html" target="_top" xlink:title=" ">
<polygon fill="white" stroke="#666666" points="246,-73 130,-73 130,-43 246,-43 246,-73"/>
<text text-anchor="start" x="138" y="-61" font-family="Helvetica,sans-Serif" font-size="10.00">Presentation&lt; std::</text>
<text text-anchor="middle" x="188" y="-50" font-family="Helvetica,sans-Serif" font-size="10.00">vector&lt; letter_type &gt; &gt;</text>
</a>
</g>
</g>
<!-- Node1&#45;&gt;Node3 -->
<g id="edge2_Node000001_Node000003" class="edge">
<title>Node1&#45;&gt;Node3</title>
<g id="a_edge2_Node000001_Node000003"><a xlink:title=" ">
<path fill="none" stroke="#63b8ff" d="M104.35,-58C112.73,-58 121.38,-58 129.79,-58"/>
<polygon fill="#63b8ff" stroke="#63b8ff" points="104.29,-54.5 94.28,-58 104.28,-61.5 104.29,-54.5"/>
</a>
</g>
</g>
<!-- Node4 -->
<g id="Node000004" class="node">
<title>Node4</title>
<g id="a_Node000004"><a xlink:href="classlibsemigroups_1_1_presentation.html" target="_top" xlink:title="For an implementation of presentations for semigroups or monoids.">
<polygon fill="white" stroke="#666666" points="244,-24.5 132,-24.5 132,-5.5 244,-5.5 244,-24.5"/>
<text text-anchor="middle" x="188" y="-12.5" font-family="Helvetica,sans-Serif" font-size="10.00">Presentation&lt; Word &gt;</text>
</a>
</g>
</g>
<!-- Node1&#45;&gt;Node4 -->
<g id="edge3_Node000001_Node000004" class="edge">
<title>Node1&#45;&gt;Node4</title>
<g id="a_edge3_Node000001_Node000004"><a xlink:title=" ">
<path fill="none" stroke="#63b8ff" d="M88.43,-45.49C110.06,-38.8 136.28,-30.69 156.24,-24.52"/>
<polygon fill="#63b8ff" stroke="#63b8ff" points="87.37,-42.16 78.85,-48.46 89.44,-48.85 87.37,-42.16"/>
</a>
</g>
</g>
<!-- Node5 -->
<g id="Node000005" class="node">
<title>Node5</title>
<g id="a_Node000005"><a xlink:href="classlibsemigroups_1_1_inverse_presentation.html" target="_top" xlink:title="For an implementation of inverse presentations for semigroups or monoids.">
<polygon fill="white" stroke="#666666" points="386,-30 282,-30 282,0 386,0 386,-30"/>
<text text-anchor="start" x="290" y="-18" font-family="Helvetica,sans-Serif" font-size="10.00">InversePresentation</text>
<text text-anchor="middle" x="334" y="-7" font-family="Helvetica,sans-Serif" font-size="10.00">&lt; Word &gt;</text>
</a>
</g>
</g>
<!-- Node4&#45;&gt;Node5 -->
<g id="edge4_Node000004_Node000005" class="edge">
<title>Node4&#45;&gt;Node5</title>
<g id="a_edge4_Node000004_Node000005"><a xlink:title=" ">
<path fill="none" stroke="#63b8ff" d="M254.54,-15C263.72,-15 273.04,-15 281.9,-15"/>
<polygon fill="#63b8ff" stroke="#63b8ff" points="254.26,-11.5 244.26,-15 254.26,-18.5 254.26,-11.5"/>
</a>
</g>
</g>
</g>
</svg>
