<?xml version="1.0" encoding="UTF-8" standalone="no"?>
<!DOCTYPE svg PUBLIC "-//W3C//DTD SVG 1.1//EN"
 "http://www.w3.org/Graphics/SVG/1.1/DTD/svg11.dtd">
<!-- Generated by graphviz version 12.1.2 (20240928.0832)
 -->
<!-- Title: PTransfPolymorphicBase Pages: 1 -->
<svg width="463pt" height="147pt"
 viewBox="0.00 0.00 462.50 146.50" xmlns="http://www.w3.org/2000/svg" xmlns:xlink="http://www.w3.org/1999/xlink">
<g id="graph0" class="graph" transform="scale(1 1) rotate(0) translate(4 142.5)">
<title>PTransfPolymorphicBase</title>
<!-- Node1 -->
<g id="Node000001" class="node">
<title>Node1</title>
<g id="a_Node000001"><a xlink:title=" ">
<polygon fill="#999999" stroke="#666666" points="127,-78.88 0,-78.88 0,-59.62 127,-59.62 127,-78.88"/>
<text text-anchor="middle" x="63.5" y="-65.38" font-family="Helvetica,sans-Serif" font-size="10.00">PTransfPolymorphicBase</text>
</a>
</g>
</g>
<!-- Node2 -->
<g id="Node000002" class="node">
<title>Node2</title>
<g id="a_Node000002"><a xlink:href="classlibsemigroups_1_1_p_transf_base.html" target="_top" xlink:title=" ">
<polygon fill="white" stroke="#666666" points="283.25,-138.5 163,-138.5 163,-108 283.25,-108 283.25,-138.5"/>
<text text-anchor="start" x="171" y="-125" font-family="Helvetica,sans-Serif" font-size="10.00">PTransfBase&lt; Scalar,</text>
<text text-anchor="middle" x="223.12" y="-113.75" font-family="Helvetica,sans-Serif" font-size="10.00"> std::vector&lt; Scalar &gt; &gt;</text>
</a>
</g>
</g>
<!-- Node1&#45;&gt;Node2 -->
<g id="edge1_Node000001_Node000002" class="edge">
<title>Node1&#45;&gt;Node2</title>
<g id="a_edge1_Node000001_Node000002"><a xlink:title=" ">
<path fill="none" stroke="#63b8ff" d="M104.67,-83.01C126.51,-90.49 153.61,-99.78 176.28,-107.54"/>
<polygon fill="#63b8ff" stroke="#63b8ff" points="105.81,-79.7 95.21,-79.77 103.54,-86.32 105.81,-79.7"/>
</a>
</g>
</g>
<!-- Node4 -->
<g id="Node000004" class="node">
<title>Node4</title>
<g id="a_Node000004"><a xlink:href="classlibsemigroups_1_1_p_transf_base.html" target="_top" xlink:title=" ">
<polygon fill="white" stroke="#666666" points="279.12,-90.12 167.12,-90.12 167.12,-48.38 279.12,-48.38 279.12,-90.12"/>
<text text-anchor="start" x="175.12" y="-76.62" font-family="Helvetica,sans-Serif" font-size="10.00">PTransfBase&lt; Scalar,</text>
<text text-anchor="start" x="175.12" y="-65.38" font-family="Helvetica,sans-Serif" font-size="10.00"> std::array&lt; Scalar,</text>
<text text-anchor="middle" x="223.12" y="-54.12" font-family="Helvetica,sans-Serif" font-size="10.00"> N &gt; &gt;</text>
</a>
</g>
</g>
<!-- Node1&#45;&gt;Node4 -->
<g id="edge3_Node000001_Node000004" class="edge">
<title>Node1&#45;&gt;Node4</title>
<g id="a_edge3_Node000001_Node000004"><a xlink:title=" ">
<path fill="none" stroke="#63b8ff" d="M138.68,-69.25C148.12,-69.25 157.65,-69.25 166.73,-69.25"/>
<polygon fill="#63b8ff" stroke="#63b8ff" points="138.76,-65.75 128.76,-69.25 138.76,-72.75 138.76,-65.75"/>
</a>
</g>
</g>
<!-- Node6 -->
<g id="Node000006" class="node">
<title>Node6</title>
<g id="a_Node000006"><a xlink:href="classlibsemigroups_1_1_p_transf_base.html" target="_top" xlink:title="Base class for partial transformations.">
<polygon fill="white" stroke="#666666" points="279.12,-30.5 167.12,-30.5 167.12,0 279.12,0 279.12,-30.5"/>
<text text-anchor="start" x="175.12" y="-17" font-family="Helvetica,sans-Serif" font-size="10.00">PTransfBase&lt; Scalar,</text>
<text text-anchor="middle" x="223.12" y="-5.75" font-family="Helvetica,sans-Serif" font-size="10.00"> Container &gt;</text>
</a>
</g>
</g>
<!-- Node1&#45;&gt;Node6 -->
<g id="edge5_Node000001_Node000006" class="edge">
<title>Node1&#45;&gt;Node6</title>
<g id="a_edge5_Node000001_Node000006"><a xlink:title=" ">
<path fill="none" stroke="#63b8ff" d="M104.67,-55.49C126.51,-48.01 153.61,-38.72 176.28,-30.96"/>
<polygon fill="#63b8ff" stroke="#63b8ff" points="103.54,-52.18 95.21,-58.73 105.81,-58.8 103.54,-52.18"/>
</a>
</g>
</g>
<!-- Node3 -->
<g id="Node000003" class="node">
<title>Node3</title>
<g id="a_Node000003"><a xlink:href="classlibsemigroups_1_1_dynamic_p_transf.html" target="_top" xlink:title="Partial transformations with dynamic degree.">
<polygon fill="white" stroke="#666666" points="454.5,-132.88 319.25,-132.88 319.25,-113.62 454.5,-113.62 454.5,-132.88"/>
<text text-anchor="middle" x="386.88" y="-119.38" font-family="Helvetica,sans-Serif" font-size="10.00">DynamicPTransf&lt; Scalar &gt;</text>
</a>
</g>
</g>
<!-- Node2&#45;&gt;Node3 -->
<g id="edge2_Node000002_Node000003" class="edge">
<title>Node2&#45;&gt;Node3</title>
<g id="a_edge2_Node000002_Node000003"><a xlink:title=" ">
<path fill="none" stroke="#63b8ff" d="M294.69,-123.25C302.73,-123.25 310.92,-123.25 318.92,-123.25"/>
<polygon fill="#63b8ff" stroke="#63b8ff" points="294.95,-119.75 284.95,-123.25 294.95,-126.75 294.95,-119.75"/>
</a>
</g>
</g>
<!-- Node5 -->
<g id="Node000005" class="node">
<title>Node5</title>
<g id="a_Node000005"><a xlink:href="classlibsemigroups_1_1_static_p_transf.html" target="_top" xlink:title="Partial transformations with static degree.">
<polygon fill="white" stroke="#666666" points="454.5,-78.88 319.25,-78.88 319.25,-59.62 454.5,-59.62 454.5,-78.88"/>
<text text-anchor="middle" x="386.88" y="-65.38" font-family="Helvetica,sans-Serif" font-size="10.00">StaticPTransf&lt; N, Scalar &gt;</text>
</a>
</g>
</g>
<!-- Node4&#45;&gt;Node5 -->
<g id="edge4_Node000004_Node000005" class="edge">
<title>Node4&#45;&gt;Node5</title>
<g id="a_edge4_Node000004_Node000005"><a xlink:title=" ">
<path fill="none" stroke="#63b8ff" d="M290.57,-69.25C299.92,-69.25 309.53,-69.25 318.89,-69.25"/>
<polygon fill="#63b8ff" stroke="#63b8ff" points="290.85,-65.75 280.85,-69.25 290.85,-72.75 290.85,-65.75"/>
</a>
</g>
</g>
</g>
</svg>
