<?xml version="1.0" encoding="UTF-8" standalone="no"?>
<!DOCTYPE svg PUBLIC "-//W3C//DTD SVG 1.1//EN"
 "http://www.w3.org/Graphics/SVG/1.1/DTD/svg11.dtd">
<!-- Generated by graphviz version 2.43.0 (0)
 -->
<!-- Title: is_specialization_of&lt; Primary&lt; Args... &gt;, Primary &gt; Pages: 1 -->
<svg width="146pt" height="104pt"
 viewBox="0.00 0.00 145.50 104.00" xmlns="http://www.w3.org/2000/svg" xmlns:xlink="http://www.w3.org/1999/xlink">
<g id="graph0" class="graph" transform="scale(1 1) rotate(0) translate(4 100)">
<title>is_specialization_of&lt; Primary&lt; Args... &gt;, Primary &gt;</title>
<!-- Node1 -->
<g id="Node000001" class="node">
<title>Node1</title>
<g id="a_Node000001"><a xlink:title="Struct for checking if a template parameter is a specialization of another.">
<polygon fill="#999999" stroke="#666666" points="124.5,-41 15.5,-41 15.5,0 124.5,0 124.5,-41"/>
<text text-anchor="start" x="23.5" y="-29" font-family="Helvetica,sans-Serif" font-size="10.00">is_specialization_of</text>
<text text-anchor="start" x="23.5" y="-18" font-family="Helvetica,sans-Serif" font-size="10.00">&lt; Primary&lt; Args... &gt;,</text>
<text text-anchor="middle" x="70" y="-7" font-family="Helvetica,sans-Serif" font-size="10.00"> Primary &gt;</text>
</a>
</g>
</g>
<!-- Node2 -->
<g id="Node000002" class="node">
<title>Node2</title>
<g id="a_Node000002"><a target="_parent" xlink:href="http://en.cppreference.com/w/cpp/types/integral_constant.html" xlink:title=" ">
<polygon fill="white" stroke="#bfbfbf" points="62,-96 0,-96 0,-77 62,-77 62,-96"/>
<text text-anchor="middle" x="31" y="-84" font-family="Helvetica,sans-Serif" font-size="10.00">false_type</text>
</a>
</g>
</g>
<!-- Node2&#45;&gt;Node1 -->
<g id="edge1_Node000001_Node000002" class="edge">
<title>Node2&#45;&gt;Node1</title>
<g id="a_edge1_Node000001_Node000002"><a xlink:title=" ">
<path fill="none" stroke="#63b8ff" d="M41.49,-68.28C46.62,-59.87 52.81,-49.71 58.11,-41.01"/>
<polygon fill="#63b8ff" stroke="#63b8ff" points="38.47,-66.51 36.26,-76.87 44.45,-70.15 38.47,-66.51"/>
</a>
</g>
</g>
<!-- Node3 -->
<g id="Node000003" class="node">
<title>Node3</title>
<g id="a_Node000003"><a target="_parent" xlink:href="http://en.cppreference.com/w/cpp/types/integral_constant.html" xlink:title=" ">
<polygon fill="white" stroke="#bfbfbf" points="137.5,-96 80.5,-96 80.5,-77 137.5,-77 137.5,-96"/>
<text text-anchor="middle" x="109" y="-84" font-family="Helvetica,sans-Serif" font-size="10.00">true_type</text>
</a>
</g>
</g>
<!-- Node3&#45;&gt;Node1 -->
<g id="edge2_Node000001_Node000003" class="edge">
<title>Node3&#45;&gt;Node1</title>
<g id="a_edge2_Node000001_Node000003"><a xlink:title=" ">
<path fill="none" stroke="#63b8ff" d="M98.51,-68.28C93.38,-59.87 87.19,-49.71 81.89,-41.01"/>
<polygon fill="#63b8ff" stroke="#63b8ff" points="95.55,-70.15 103.74,-76.87 101.53,-66.51 95.55,-70.15"/>
</a>
</g>
</g>
</g>
</svg>
