<?xml version="1.0" encoding="UTF-8" standalone="no"?>
<!DOCTYPE svg PUBLIC "-//W3C//DTD SVG 1.1//EN"
 "http://www.w3.org/Graphics/SVG/1.1/DTD/svg11.dtd">
<!-- Generated by graphviz version 12.2.1 (20241206.2353)
 -->
<!-- Title: PresentationBase Pages: 1 -->
<svg width="392pt" height="180pt"
 viewBox="0.00 0.00 392.00 179.50" xmlns="http://www.w3.org/2000/svg" xmlns:xlink="http://www.w3.org/1999/xlink">
<g id="graph0" class="graph" transform="scale(1 1) rotate(0) translate(4 175.5)">
<title>PresentationBase</title>
<!-- Node1 -->
<g id="Node000001" class="node">
<title>Node1</title>
<g id="a_Node000001"><a xlink:title="Empty base for presentation&#45;like classes.">
<polygon fill="#999999" stroke="#666666" points="93.25,-91.88 0,-91.88 0,-72.62 93.25,-72.62 93.25,-91.88"/>
<text text-anchor="middle" x="46.62" y="-78.38" font-family="Helvetica,sans-Serif" font-size="10.00">PresentationBase</text>
</a>
</g>
</g>
<!-- Node2 -->
<g id="Node000002" class="node">
<title>Node2</title>
<g id="a_Node000002"><a xlink:href="classlibsemigroups_1_1_presentation.html" target="_top" xlink:title=" ">
<polygon fill="white" stroke="#666666" points="236.75,-171.5 137.5,-171.5 137.5,-141 236.75,-141 236.75,-171.5"/>
<text text-anchor="start" x="145.5" y="-158" font-family="Helvetica,sans-Serif" font-size="10.00">Presentation&lt; std::</text>
<text text-anchor="middle" x="187.12" y="-146.75" font-family="Helvetica,sans-Serif" font-size="10.00">string &gt;</text>
</a>
</g>
</g>
<!-- Node1&#45;&gt;Node2 -->
<g id="edge1_Node000001_Node000002" class="edge">
<title>Node1&#45;&gt;Node2</title>
<g id="a_edge1_Node000001_Node000002"><a xlink:title=" ">
<path fill="none" stroke="#63b8ff" d="M72.56,-98.34C88.49,-108.34 109.74,-121.16 129.25,-131.25 135.38,-134.42 142,-137.57 148.48,-140.51"/>
<polygon fill="#63b8ff" stroke="#63b8ff" points="74.54,-95.45 64.22,-93.05 70.79,-101.36 74.54,-95.45"/>
</a>
</g>
</g>
<!-- Node3 -->
<g id="Node000003" class="node">
<title>Node3</title>
<g id="a_Node000003"><a xlink:href="classlibsemigroups_1_1_presentation.html" target="_top" xlink:title=" ">
<polygon fill="white" stroke="#666666" points="245,-122.5 129.25,-122.5 129.25,-92 245,-92 245,-122.5"/>
<text text-anchor="start" x="137.25" y="-109" font-family="Helvetica,sans-Serif" font-size="10.00">Presentation&lt; std::</text>
<text text-anchor="middle" x="187.12" y="-97.75" font-family="Helvetica,sans-Serif" font-size="10.00">vector&lt; letter_type &gt; &gt;</text>
</a>
</g>
</g>
<!-- Node1&#45;&gt;Node3 -->
<g id="edge2_Node000001_Node000003" class="edge">
<title>Node1&#45;&gt;Node3</title>
<g id="a_edge2_Node000001_Node000003"><a xlink:title=" ">
<path fill="none" stroke="#63b8ff" d="M104.87,-92.58C112.88,-94.03 121.11,-95.51 129.12,-96.96"/>
<polygon fill="#63b8ff" stroke="#63b8ff" points="105.7,-89.18 95.23,-90.84 104.45,-96.06 105.7,-89.18"/>
</a>
</g>
</g>
<!-- Node4 -->
<g id="Node000004" class="node">
<title>Node4</title>
<g id="a_Node000004"><a xlink:href="classlibsemigroups_1_1_presentation.html" target="_top" xlink:title=" ">
<polygon fill="white" stroke="#666666" points="240.12,-73.5 134.12,-73.5 134.12,-43 240.12,-43 240.12,-73.5"/>
<text text-anchor="start" x="142.12" y="-60" font-family="Helvetica,sans-Serif" font-size="10.00">Presentation&lt; native</text>
<text text-anchor="middle" x="187.12" y="-48.75" font-family="Helvetica,sans-Serif" font-size="10.00">_word_type &gt;</text>
</a>
</g>
</g>
<!-- Node1&#45;&gt;Node4 -->
<g id="edge3_Node000001_Node000004" class="edge">
<title>Node1&#45;&gt;Node4</title>
<g id="a_edge3_Node000001_Node000004"><a xlink:title=" ">
<path fill="none" stroke="#63b8ff" d="M104.87,-72.33C114.52,-70.66 124.49,-68.93 133.99,-67.28"/>
<polygon fill="#63b8ff" stroke="#63b8ff" points="104.49,-68.84 95.23,-74 105.69,-75.74 104.49,-68.84"/>
</a>
</g>
</g>
<!-- Node5 -->
<g id="Node000005" class="node">
<title>Node5</title>
<g id="a_Node000005"><a xlink:href="classlibsemigroups_1_1_presentation.html" target="_top" xlink:title="For an implementation of presentations for semigroups or monoids.">
<polygon fill="white" stroke="#666666" points="242.75,-24.88 131.5,-24.88 131.5,-5.63 242.75,-5.63 242.75,-24.88"/>
<text text-anchor="middle" x="187.12" y="-11.38" font-family="Helvetica,sans-Serif" font-size="10.00">Presentation&lt; Word &gt;</text>
</a>
</g>
</g>
<!-- Node1&#45;&gt;Node5 -->
<g id="edge4_Node000001_Node000005" class="edge">
<title>Node1&#45;&gt;Node5</title>
<g id="a_edge4_Node000001_Node000005"><a xlink:title=" ">
<path fill="none" stroke="#63b8ff" d="M72.01,-66.09C87.87,-56.04 109.24,-43.35 129.25,-34.25 136.45,-30.97 144.39,-27.97 151.99,-25.36"/>
<polygon fill="#63b8ff" stroke="#63b8ff" points="70.24,-63.06 63.73,-71.42 74.03,-68.95 70.24,-63.06"/>
</a>
</g>
</g>
<!-- Node6 -->
<g id="Node000006" class="node">
<title>Node6</title>
<g id="a_Node000006"><a xlink:href="classlibsemigroups_1_1_inverse_presentation.html" target="_top" xlink:title="For an implementation of inverse presentations for semigroups or monoids.">
<polygon fill="white" stroke="#666666" points="384,-30.5 281,-30.5 281,0 384,0 384,-30.5"/>
<text text-anchor="start" x="289" y="-17" font-family="Helvetica,sans-Serif" font-size="10.00">InversePresentation</text>
<text text-anchor="middle" x="332.5" y="-5.75" font-family="Helvetica,sans-Serif" font-size="10.00">&lt; Word &gt;</text>
</a>
</g>
</g>
<!-- Node5&#45;&gt;Node6 -->
<g id="edge5_Node000005_Node000006" class="edge">
<title>Node5&#45;&gt;Node6</title>
<g id="a_edge5_Node000005_Node000006"><a xlink:title=" ">
<path fill="none" stroke="#63b8ff" d="M254.56,-15.25C263.32,-15.25 272.18,-15.25 280.62,-15.25"/>
<polygon fill="#63b8ff" stroke="#63b8ff" points="254.66,-11.75 244.66,-15.25 254.66,-18.75 254.66,-11.75"/>
</a>
</g>
</g>
</g>
</svg>
