<?xml version="1.0" encoding="UTF-8" standalone="no"?>
<!DOCTYPE svg PUBLIC "-//W3C//DTD SVG 1.1//EN"
 "http://www.w3.org/Graphics/SVG/1.1/DTD/svg11.dtd">
<!-- Generated by graphviz version 12.2.1 (0)
 -->
<!-- Title: is_specialization_of&lt; Primary&lt; Args... &gt;, Primary &gt; Pages: 1 -->
<svg width="144pt" height="105pt"
 viewBox="0.00 0.00 143.75 105.00" xmlns="http://www.w3.org/2000/svg" xmlns:xlink="http://www.w3.org/1999/xlink">
<g id="graph0" class="graph" transform="scale(1 1) rotate(0) translate(4 101)">
<title>is_specialization_of&lt; Primary&lt; Args... &gt;, Primary &gt;</title>
<!-- Node1 -->
<g id="Node000001" class="node">
<title>Node1</title>
<g id="a_Node000001"><a xlink:title="Struct for checking if a template parameter is a specialization of another.">
<polygon fill="#999999" stroke="#666666" points="122.62,-41.75 14.38,-41.75 14.38,0 122.62,0 122.62,-41.75"/>
<text text-anchor="start" x="22.38" y="-28.25" font-family="Helvetica,sans-Serif" font-size="10.00">is_specialization_of</text>
<text text-anchor="start" x="22.38" y="-17" font-family="Helvetica,sans-Serif" font-size="10.00">&lt; Primary&lt; Args... &gt;,</text>
<text text-anchor="middle" x="68.5" y="-5.75" font-family="Helvetica,sans-Serif" font-size="10.00"> Primary &gt;</text>
</a>
</g>
</g>
<!-- Node2 -->
<g id="Node000002" class="node">
<title>Node2</title>
<g id="a_Node000002"><a target="_parent" xlink:href="http://en.cppreference.com/w/cpp/types/integral_constant.html" xlink:title=" ">
<polygon fill="white" stroke="#bfbfbf" points="61,-97 0,-97 0,-77.75 61,-77.75 61,-97"/>
<text text-anchor="middle" x="30.5" y="-83.5" font-family="Helvetica,sans-Serif" font-size="10.00">false_type</text>
</a>
</g>
</g>
<!-- Node2&#45;&gt;Node1 -->
<g id="edge1_Node000001_Node000002" class="edge">
<title>Node2&#45;&gt;Node1</title>
<g id="a_edge1_Node000001_Node000002"><a xlink:title=" ">
<path fill="none" stroke="#63b8ff" d="M41.56,-67.6C46.26,-59.63 51.75,-50.31 56.54,-42.18"/>
<polygon fill="#63b8ff" stroke="#63b8ff" points="38.61,-65.71 36.55,-76.1 44.64,-69.26 38.61,-65.71"/>
</a>
</g>
</g>
<!-- Node3 -->
<g id="Node000003" class="node">
<title>Node3</title>
<g id="a_Node000003"><a target="_parent" xlink:href="http://en.cppreference.com/w/cpp/types/integral_constant.html" xlink:title=" ">
<polygon fill="white" stroke="#bfbfbf" points="135.75,-97 79.25,-97 79.25,-77.75 135.75,-77.75 135.75,-97"/>
<text text-anchor="middle" x="107.5" y="-83.5" font-family="Helvetica,sans-Serif" font-size="10.00">true_type</text>
</a>
</g>
</g>
<!-- Node3&#45;&gt;Node1 -->
<g id="edge2_Node000001_Node000003" class="edge">
<title>Node3&#45;&gt;Node1</title>
<g id="a_edge2_Node000001_Node000003"><a xlink:title=" ">
<path fill="none" stroke="#63b8ff" d="M96.15,-67.6C91.33,-59.63 85.69,-50.31 80.78,-42.18"/>
<polygon fill="#63b8ff" stroke="#63b8ff" points="93.12,-69.37 101.29,-76.11 99.11,-65.74 93.12,-69.37"/>
</a>
</g>
</g>
</g>
</svg>
