<?xml version="1.0" encoding="UTF-8" standalone="no"?>
<!DOCTYPE svg PUBLIC "-//W3C//DTD SVG 1.1//EN"
 "http://www.w3.org/Graphics/SVG/1.1/DTD/svg11.dtd">
<!-- Generated by graphviz version 2.43.0 (0)
 -->
<!-- Title: PTransfPolymorphicBase Pages: 1 -->
<svg width="465pt" height="146pt"
 viewBox="0.00 0.00 465.00 146.00" xmlns="http://www.w3.org/2000/svg" xmlns:xlink="http://www.w3.org/1999/xlink">
<g id="graph0" class="graph" transform="scale(1 1) rotate(0) translate(4 142)">
<title>PTransfPolymorphicBase</title>
<!-- Node1 -->
<g id="Node000001" class="node">
<title>Node1</title>
<g id="a_Node000001"><a xlink:title=" ">
<polygon fill="#999999" stroke="#666666" points="128,-78.5 0,-78.5 0,-59.5 128,-59.5 128,-78.5"/>
<text text-anchor="middle" x="64" y="-66.5" font-family="Helvetica,sans-Serif" font-size="10.00">PTransfPolymorphicBase</text>
</a>
</g>
</g>
<!-- Node2 -->
<g id="Node000002" class="node">
<title>Node2</title>
<g id="a_Node000002"><a xlink:href="classlibsemigroups_1_1_p_transf_base.html" target="_top" xlink:title=" ">
<polygon fill="white" stroke="#666666" points="285,-138 164,-138 164,-108 285,-108 285,-138"/>
<text text-anchor="start" x="172" y="-126" font-family="Helvetica,sans-Serif" font-size="10.00">PTransfBase&lt; Scalar,</text>
<text text-anchor="middle" x="224.5" y="-115" font-family="Helvetica,sans-Serif" font-size="10.00"> std::vector&lt; Scalar &gt; &gt;</text>
</a>
</g>
</g>
<!-- Node1&#45;&gt;Node2 -->
<g id="edge1_Node000001_Node000002" class="edge">
<title>Node1&#45;&gt;Node2</title>
<g id="a_edge1_Node000001_Node000002"><a xlink:title=" ">
<path fill="none" stroke="#63b8ff" d="M102.72,-81.85C125.74,-89.69 155.26,-99.75 179.36,-107.96"/>
<polygon fill="#63b8ff" stroke="#63b8ff" points="103.57,-78.44 92.97,-78.53 101.31,-85.07 103.57,-78.44"/>
</a>
</g>
</g>
<!-- Node4 -->
<g id="Node000004" class="node">
<title>Node4</title>
<g id="a_Node000004"><a xlink:href="classlibsemigroups_1_1_p_transf_base.html" target="_top" xlink:title=" ">
<polygon fill="white" stroke="#666666" points="281,-89.5 168,-89.5 168,-48.5 281,-48.5 281,-89.5"/>
<text text-anchor="start" x="176" y="-77.5" font-family="Helvetica,sans-Serif" font-size="10.00">PTransfBase&lt; Scalar,</text>
<text text-anchor="start" x="176" y="-66.5" font-family="Helvetica,sans-Serif" font-size="10.00"> std::array&lt; Scalar,</text>
<text text-anchor="middle" x="224.5" y="-55.5" font-family="Helvetica,sans-Serif" font-size="10.00"> N &gt; &gt;</text>
</a>
</g>
</g>
<!-- Node1&#45;&gt;Node4 -->
<g id="edge3_Node000001_Node000004" class="edge">
<title>Node1&#45;&gt;Node4</title>
<g id="a_edge3_Node000001_Node000004"><a xlink:title=" ">
<path fill="none" stroke="#63b8ff" d="M138.34,-69C148.24,-69 158.27,-69 167.79,-69"/>
<polygon fill="#63b8ff" stroke="#63b8ff" points="138.1,-65.5 128.1,-69 138.1,-72.5 138.1,-65.5"/>
</a>
</g>
</g>
<!-- Node6 -->
<g id="Node000006" class="node">
<title>Node6</title>
<g id="a_Node000006"><a xlink:href="classlibsemigroups_1_1_p_transf_base.html" target="_top" xlink:title="Base class for partial transformations.">
<polygon fill="white" stroke="#666666" points="281,-30 168,-30 168,0 281,0 281,-30"/>
<text text-anchor="start" x="176" y="-18" font-family="Helvetica,sans-Serif" font-size="10.00">PTransfBase&lt; Scalar,</text>
<text text-anchor="middle" x="224.5" y="-7" font-family="Helvetica,sans-Serif" font-size="10.00"> Container &gt;</text>
</a>
</g>
</g>
<!-- Node1&#45;&gt;Node6 -->
<g id="edge5_Node000001_Node000006" class="edge">
<title>Node1&#45;&gt;Node6</title>
<g id="a_edge5_Node000001_Node000006"><a xlink:title=" ">
<path fill="none" stroke="#63b8ff" d="M102.72,-56.15C125.74,-48.31 155.26,-38.25 179.36,-30.04"/>
<polygon fill="#63b8ff" stroke="#63b8ff" points="101.31,-52.93 92.97,-59.47 103.57,-59.56 101.31,-52.93"/>
</a>
</g>
</g>
<!-- Node3 -->
<g id="Node000003" class="node">
<title>Node3</title>
<g id="a_Node000003"><a xlink:href="classlibsemigroups_1_1_dynamic_p_transf.html" target="_top" xlink:title="Partial transformations with dynamic degree.">
<polygon fill="white" stroke="#666666" points="457,-132.5 321,-132.5 321,-113.5 457,-113.5 457,-132.5"/>
<text text-anchor="middle" x="389" y="-120.5" font-family="Helvetica,sans-Serif" font-size="10.00">DynamicPTransf&lt; Scalar &gt;</text>
</a>
</g>
</g>
<!-- Node2&#45;&gt;Node3 -->
<g id="edge2_Node000002_Node000003" class="edge">
<title>Node2&#45;&gt;Node3</title>
<g id="a_edge2_Node000002_Node000003"><a xlink:title=" ">
<path fill="none" stroke="#63b8ff" d="M295.27,-123C303.72,-123 312.33,-123 320.73,-123"/>
<polygon fill="#63b8ff" stroke="#63b8ff" points="295.09,-119.5 285.09,-123 295.09,-126.5 295.09,-119.5"/>
</a>
</g>
</g>
<!-- Node5 -->
<g id="Node000005" class="node">
<title>Node5</title>
<g id="a_Node000005"><a xlink:href="classlibsemigroups_1_1_static_p_transf.html" target="_top" xlink:title="Partial transformations with static degree.">
<polygon fill="white" stroke="#666666" points="457,-78.5 321,-78.5 321,-59.5 457,-59.5 457,-78.5"/>
<text text-anchor="middle" x="389" y="-66.5" font-family="Helvetica,sans-Serif" font-size="10.00">StaticPTransf&lt; N, Scalar &gt;</text>
</a>
</g>
</g>
<!-- Node4&#45;&gt;Node5 -->
<g id="edge4_Node000004_Node000005" class="edge">
<title>Node4&#45;&gt;Node5</title>
<g id="a_edge4_Node000004_Node000005"><a xlink:title=" ">
<path fill="none" stroke="#63b8ff" d="M291.69,-69C301.27,-69 311.15,-69 320.76,-69"/>
<polygon fill="#63b8ff" stroke="#63b8ff" points="291.42,-65.5 281.42,-69 291.42,-72.5 291.42,-65.5"/>
</a>
</g>
</g>
</g>
</svg>
