<?xml version="1.0" encoding="UTF-8" standalone="no"?>
<!DOCTYPE svg PUBLIC "-//W3C//DTD SVG 1.1//EN"
 "http://www.w3.org/Graphics/SVG/1.1/DTD/svg11.dtd">
<!-- Generated by graphviz version 12.1.2 (20240928.0832)
 -->
<!-- Title: PresentationBase Pages: 1 -->
<svg width="392pt" height="229pt"
 viewBox="0.00 0.00 392.00 228.50" xmlns="http://www.w3.org/2000/svg" xmlns:xlink="http://www.w3.org/1999/xlink">
<g id="graph0" class="graph" transform="scale(1 1) rotate(0) translate(4 224.5)">
<title>PresentationBase</title>
<!-- Node1 -->
<g id="Node000001" class="node">
<title>Node1</title>
<g id="a_Node000001"><a xlink:title="No doc.">
<polygon fill="#999999" stroke="#666666" points="93.25,-116.88 0,-116.88 0,-97.62 93.25,-97.62 93.25,-116.88"/>
<text text-anchor="middle" x="46.62" y="-103.38" font-family="Helvetica,sans-Serif" font-size="10.00">PresentationBase</text>
</a>
</g>
</g>
<!-- Node2 -->
<g id="Node000002" class="node">
<title>Node2</title>
<g id="a_Node000002"><a xlink:href="classlibsemigroups_1_1_presentation.html" target="_top" xlink:title=" ">
<polygon fill="white" stroke="#666666" points="236.75,-220.5 137.5,-220.5 137.5,-190 236.75,-190 236.75,-220.5"/>
<text text-anchor="start" x="145.5" y="-207" font-family="Helvetica,sans-Serif" font-size="10.00">Presentation&lt; std::</text>
<text text-anchor="middle" x="187.12" y="-195.75" font-family="Helvetica,sans-Serif" font-size="10.00">string &gt;</text>
</a>
</g>
</g>
<!-- Node1&#45;&gt;Node2 -->
<g id="edge1_Node000001_Node000002" class="edge">
<title>Node1&#45;&gt;Node2</title>
<g id="a_edge1_Node000001_Node000002"><a xlink:title=" ">
<path fill="none" stroke="#63b8ff" d="M64.58,-125.37C80.23,-141.34 104.7,-164.45 129.25,-180.25 134.51,-183.64 140.31,-186.77 146.13,-189.59"/>
<polygon fill="#63b8ff" stroke="#63b8ff" points="67.35,-123.2 57.9,-118.42 62.31,-128.05 67.35,-123.2"/>
</a>
</g>
</g>
<!-- Node3 -->
<g id="Node000003" class="node">
<title>Node3</title>
<g id="a_Node000003"><a xlink:href="classlibsemigroups_1_1_presentation.html" target="_top" xlink:title=" ">
<polygon fill="white" stroke="#666666" points="245,-171.5 129.25,-171.5 129.25,-141 245,-141 245,-171.5"/>
<text text-anchor="start" x="137.25" y="-158" font-family="Helvetica,sans-Serif" font-size="10.00">Presentation&lt; std::</text>
<text text-anchor="middle" x="187.12" y="-146.75" font-family="Helvetica,sans-Serif" font-size="10.00">vector&lt; letter_type &gt; &gt;</text>
</a>
</g>
</g>
<!-- Node1&#45;&gt;Node3 -->
<g id="edge2_Node000001_Node000003" class="edge">
<title>Node1&#45;&gt;Node3</title>
<g id="a_edge2_Node000001_Node000003"><a xlink:title=" ">
<path fill="none" stroke="#63b8ff" d="M86.74,-121.09C103.86,-127.14 124.03,-134.28 141.71,-140.54"/>
<polygon fill="#63b8ff" stroke="#63b8ff" points="88.01,-117.82 77.41,-117.79 85.67,-124.42 88.01,-117.82"/>
</a>
</g>
</g>
<!-- Node4 -->
<g id="Node000004" class="node">
<title>Node4</title>
<g id="a_Node000004"><a xlink:href="classlibsemigroups_1_1_presentation.html" target="_top" xlink:title=" ">
<polygon fill="white" stroke="#666666" points="240.12,-122.5 134.12,-122.5 134.12,-92 240.12,-92 240.12,-122.5"/>
<text text-anchor="start" x="142.12" y="-109" font-family="Helvetica,sans-Serif" font-size="10.00">Presentation&lt; native</text>
<text text-anchor="middle" x="187.12" y="-97.75" font-family="Helvetica,sans-Serif" font-size="10.00">_word_type &gt;</text>
</a>
</g>
</g>
<!-- Node1&#45;&gt;Node4 -->
<g id="edge3_Node000001_Node000004" class="edge">
<title>Node1&#45;&gt;Node4</title>
<g id="a_edge3_Node000001_Node000004"><a xlink:title=" ">
<path fill="none" stroke="#63b8ff" d="M105.19,-107.25C114.74,-107.25 124.59,-107.25 133.99,-107.25"/>
<polygon fill="#63b8ff" stroke="#63b8ff" points="105.26,-103.75 95.26,-107.25 105.26,-110.75 105.26,-103.75"/>
</a>
</g>
</g>
<!-- Node5 -->
<g id="Node000005" class="node">
<title>Node5</title>
<g id="a_Node000005"><a xlink:href="classlibsemigroups_1_1_presentation.html" target="_top" xlink:title=" ">
<polygon fill="white" stroke="#666666" points="237.5,-73.5 136.75,-73.5 136.75,-43 237.5,-43 237.5,-73.5"/>
<text text-anchor="start" x="144.75" y="-60" font-family="Helvetica,sans-Serif" font-size="10.00">Presentation&lt; word</text>
<text text-anchor="middle" x="187.12" y="-48.75" font-family="Helvetica,sans-Serif" font-size="10.00">_type &gt;</text>
</a>
</g>
</g>
<!-- Node1&#45;&gt;Node5 -->
<g id="edge4_Node000001_Node000005" class="edge">
<title>Node1&#45;&gt;Node5</title>
<g id="a_edge4_Node000001_Node000005"><a xlink:title=" ">
<path fill="none" stroke="#63b8ff" d="M86.74,-93.41C103.86,-87.36 124.03,-80.22 141.71,-73.96"/>
<polygon fill="#63b8ff" stroke="#63b8ff" points="85.67,-90.08 77.41,-96.71 88.01,-96.68 85.67,-90.08"/>
</a>
</g>
</g>
<!-- Node6 -->
<g id="Node000006" class="node">
<title>Node6</title>
<g id="a_Node000006"><a xlink:href="classlibsemigroups_1_1_presentation.html" target="_top" xlink:title="For an implementation of presentations for semigroups or monoids.">
<polygon fill="white" stroke="#666666" points="242.75,-24.88 131.5,-24.88 131.5,-5.63 242.75,-5.63 242.75,-24.88"/>
<text text-anchor="middle" x="187.12" y="-11.38" font-family="Helvetica,sans-Serif" font-size="10.00">Presentation&lt; Word &gt;</text>
</a>
</g>
</g>
<!-- Node1&#45;&gt;Node6 -->
<g id="edge5_Node000001_Node000006" class="edge">
<title>Node1&#45;&gt;Node6</title>
<g id="a_edge5_Node000001_Node000006"><a xlink:title=" ">
<path fill="none" stroke="#63b8ff" d="M63.74,-89.12C79.14,-72.76 103.73,-49.07 129.25,-34.25 135.28,-30.75 142.05,-27.78 148.76,-25.3"/>
<polygon fill="#63b8ff" stroke="#63b8ff" points="61.4,-86.5 57.21,-96.23 66.55,-91.23 61.4,-86.5"/>
</a>
</g>
</g>
<!-- Node7 -->
<g id="Node000007" class="node">
<title>Node7</title>
<g id="a_Node000007"><a xlink:href="classlibsemigroups_1_1_inverse_presentation.html" target="_top" xlink:title="For an implementation of inverse presentations for semigroups or monoids.">
<polygon fill="white" stroke="#666666" points="384,-30.5 281,-30.5 281,0 384,0 384,-30.5"/>
<text text-anchor="start" x="289" y="-17" font-family="Helvetica,sans-Serif" font-size="10.00">InversePresentation</text>
<text text-anchor="middle" x="332.5" y="-5.75" font-family="Helvetica,sans-Serif" font-size="10.00">&lt; Word &gt;</text>
</a>
</g>
</g>
<!-- Node6&#45;&gt;Node7 -->
<g id="edge6_Node000006_Node000007" class="edge">
<title>Node6&#45;&gt;Node7</title>
<g id="a_edge6_Node000006_Node000007"><a xlink:title=" ">
<path fill="none" stroke="#63b8ff" d="M254.56,-15.25C263.32,-15.25 272.18,-15.25 280.62,-15.25"/>
<polygon fill="#63b8ff" stroke="#63b8ff" points="254.66,-11.75 244.66,-15.25 254.66,-18.75 254.66,-11.75"/>
</a>
</g>
</g>
</g>
</svg>
